<mxfile host="65bd71144e">
    <diagram id="7O_omrfVbfGOhJ8oWqOY" name="Page-1">
        <mxGraphModel dx="929" dy="680" grid="1" gridSize="10" guides="1" tooltips="1" connect="1" arrows="1" fold="1" page="1" pageScale="1" pageWidth="827" pageHeight="1169" math="0" shadow="0">
            <root>
                <mxCell id="0"/>
                <mxCell id="1" parent="0"/>
                <mxCell id="iFJsFlJdxSo0Ghs3sPFQ-22" style="edgeStyle=orthogonalEdgeStyle;orthogonalLoop=1;jettySize=auto;html=1;endArrow=diamondThin;endFill=1;fontFamily=JetBrains Mono;fontSource=https%3A%2F%2Ffonts.googleapis.com%2Fcss%3Ffamily%3DJetBrains%2BMono;rounded=0;" parent="1" source="iFJsFlJdxSo0Ghs3sPFQ-1" target="iFJsFlJdxSo0Ghs3sPFQ-5" edge="1">
                    <mxGeometry relative="1" as="geometry">
                        <Array as="points">
                            <mxPoint x="690" y="135"/>
                            <mxPoint x="690" y="135"/>
                        </Array>
                    </mxGeometry>
                </mxCell>
                <mxCell id="iFJsFlJdxSo0Ghs3sPFQ-1" value="EventHandler" style="swimlane;fontStyle=1;align=center;verticalAlign=top;childLayout=stackLayout;horizontal=1;startSize=26;horizontalStack=0;resizeParent=1;resizeParentMax=0;resizeLast=0;collapsible=1;marginBottom=0;fontFamily=JetBrains Mono;fontSource=https%3A%2F%2Ffonts.googleapis.com%2Fcss%3Ffamily%3DJetBrains%2BMono;" parent="1" vertex="1">
                    <mxGeometry x="320" y="40" width="360" height="216" as="geometry"/>
                </mxCell>
                <mxCell id="iFJsFlJdxSo0Ghs3sPFQ-2" value="- event_identifiers: vector&lt;FDManager*&gt;" style="text;strokeColor=none;fillColor=none;align=left;verticalAlign=top;spacingLeft=4;spacingRight=4;overflow=hidden;rotatable=0;points=[[0,0.5],[1,0.5]];portConstraint=eastwest;fontFamily=JetBrains Mono;fontSource=https%3A%2F%2Ffonts.googleapis.com%2Fcss%3Ffamily%3DJetBrains%2BMono;" parent="iFJsFlJdxSo0Ghs3sPFQ-1" vertex="1">
                    <mxGeometry y="26" width="360" height="26" as="geometry"/>
                </mxCell>
                <mxCell id="iFJsFlJdxSo0Ghs3sPFQ-3" value="" style="line;strokeWidth=1;fillColor=none;align=left;verticalAlign=middle;spacingTop=-1;spacingLeft=3;spacingRight=3;rotatable=0;labelPosition=right;points=[];portConstraint=eastwest;fontFamily=JetBrains Mono;fontSource=https%3A%2F%2Ffonts.googleapis.com%2Fcss%3Ffamily%3DJetBrains%2BMono;" parent="iFJsFlJdxSo0Ghs3sPFQ-1" vertex="1">
                    <mxGeometry y="52" width="360" height="8" as="geometry"/>
                </mxCell>
                <mxCell id="iFJsFlJdxSo0Ghs3sPFQ-39" value="+ EventHandler(config_file_path: string)" style="text;strokeColor=none;fillColor=none;align=left;verticalAlign=top;spacingLeft=4;spacingRight=4;overflow=hidden;rotatable=0;points=[[0,0.5],[1,0.5]];portConstraint=eastwest;fontFamily=JetBrains Mono;fontSource=https%3A%2F%2Ffonts.googleapis.com%2Fcss%3Ffamily%3DJetBrains%2BMono;" parent="iFJsFlJdxSo0Ghs3sPFQ-1" vertex="1">
                    <mxGeometry y="60" width="360" height="26" as="geometry"/>
                </mxCell>
                <mxCell id="iFJsFlJdxSo0Ghs3sPFQ-4" value="+ registerFD(fd: FDManager*): void" style="text;strokeColor=none;fillColor=none;align=left;verticalAlign=top;spacingLeft=4;spacingRight=4;overflow=hidden;rotatable=0;points=[[0,0.5],[1,0.5]];portConstraint=eastwest;fontFamily=JetBrains Mono;fontSource=https%3A%2F%2Ffonts.googleapis.com%2Fcss%3Ffamily%3DJetBrains%2BMono;" parent="iFJsFlJdxSo0Ghs3sPFQ-1" vertex="1">
                    <mxGeometry y="86" width="360" height="26" as="geometry"/>
                </mxCell>
                <mxCell id="iFJsFlJdxSo0Ghs3sPFQ-38" value="+ unregisterFD(fd: FDManager*): void" style="text;strokeColor=none;fillColor=none;align=left;verticalAlign=top;spacingLeft=4;spacingRight=4;overflow=hidden;rotatable=0;points=[[0,0.5],[1,0.5]];portConstraint=eastwest;fontFamily=JetBrains Mono;fontSource=https%3A%2F%2Ffonts.googleapis.com%2Fcss%3Ffamily%3DJetBrains%2BMono;" parent="iFJsFlJdxSo0Ghs3sPFQ-1" vertex="1">
                    <mxGeometry y="112" width="360" height="26" as="geometry"/>
                </mxCell>
                <mxCell id="wLigsZPMJS02Pw-tS1Bv-4" value="+ enableReadEvent(fdm: FDManager*): void" style="text;strokeColor=none;fillColor=none;align=left;verticalAlign=top;spacingLeft=4;spacingRight=4;overflow=hidden;rotatable=0;points=[[0,0.5],[1,0.5]];portConstraint=eastwest;fontFamily=JetBrains Mono;fontSource=https%3A%2F%2Ffonts.googleapis.com%2Fcss%3Ffamily%3DJetBrains%2BMono;" parent="iFJsFlJdxSo0Ghs3sPFQ-1" vertex="1">
                    <mxGeometry y="138" width="360" height="26" as="geometry"/>
                </mxCell>
                <mxCell id="wLigsZPMJS02Pw-tS1Bv-5" value="+ enableWriteEvent(fdm: FDManager*): void" style="text;strokeColor=none;fillColor=none;align=left;verticalAlign=top;spacingLeft=4;spacingRight=4;overflow=hidden;rotatable=0;points=[[0,0.5],[1,0.5]];portConstraint=eastwest;fontFamily=JetBrains Mono;fontSource=https%3A%2F%2Ffonts.googleapis.com%2Fcss%3Ffamily%3DJetBrains%2BMono;" parent="iFJsFlJdxSo0Ghs3sPFQ-1" vertex="1">
                    <mxGeometry y="164" width="360" height="26" as="geometry"/>
                </mxCell>
                <mxCell id="wLigsZPMJS02Pw-tS1Bv-6" value="+ setTimerEvent(fdm: FDManager*, sec: int): void" style="text;strokeColor=none;fillColor=none;align=left;verticalAlign=top;spacingLeft=4;spacingRight=4;overflow=hidden;rotatable=0;points=[[0,0.5],[1,0.5]];portConstraint=eastwest;fontFamily=JetBrains Mono;fontSource=https%3A%2F%2Ffonts.googleapis.com%2Fcss%3Ffamily%3DJetBrains%2BMono;" parent="iFJsFlJdxSo0Ghs3sPFQ-1" vertex="1">
                    <mxGeometry y="190" width="360" height="26" as="geometry"/>
                </mxCell>
                <mxCell id="iFJsFlJdxSo0Ghs3sPFQ-5" value="FDManager" style="swimlane;fontStyle=3;align=center;verticalAlign=top;childLayout=stackLayout;horizontal=1;startSize=26;horizontalStack=0;resizeParent=1;resizeParentMax=0;resizeLast=0;collapsible=1;marginBottom=0;fontFamily=JetBrains Mono;fontSource=https%3A%2F%2Ffonts.googleapis.com%2Fcss%3Ffamily%3DJetBrains%2BMono;" parent="1" vertex="1">
                    <mxGeometry x="761" y="40" width="440" height="190" as="geometry"/>
                </mxCell>
                <mxCell id="iFJsFlJdxSo0Ghs3sPFQ-6" value="- fd: int" style="text;strokeColor=none;fillColor=none;align=left;verticalAlign=top;spacingLeft=4;spacingRight=4;overflow=hidden;rotatable=0;points=[[0,0.5],[1,0.5]];portConstraint=eastwest;fontFamily=JetBrains Mono;fontSource=https%3A%2F%2Ffonts.googleapis.com%2Fcss%3Ffamily%3DJetBrains%2BMono;" parent="iFJsFlJdxSo0Ghs3sPFQ-5" vertex="1">
                    <mxGeometry y="26" width="440" height="26" as="geometry"/>
                </mxCell>
                <mxCell id="iFJsFlJdxSo0Ghs3sPFQ-7" value="" style="line;strokeWidth=1;fillColor=none;align=left;verticalAlign=middle;spacingTop=-1;spacingLeft=3;spacingRight=3;rotatable=0;labelPosition=right;points=[];portConstraint=eastwest;fontFamily=JetBrains Mono;fontSource=https%3A%2F%2Ffonts.googleapis.com%2Fcss%3Ffamily%3DJetBrains%2BMono;" parent="iFJsFlJdxSo0Ghs3sPFQ-5" vertex="1">
                    <mxGeometry y="52" width="440" height="8" as="geometry"/>
                </mxCell>
                <mxCell id="iFJsFlJdxSo0Ghs3sPFQ-41" value="+ FDManager(fd: int)" style="text;strokeColor=none;fillColor=none;align=left;verticalAlign=top;spacingLeft=4;spacingRight=4;overflow=hidden;rotatable=0;points=[[0,0.5],[1,0.5]];portConstraint=eastwest;fontFamily=JetBrains Mono;fontSource=https%3A%2F%2Ffonts.googleapis.com%2Fcss%3Ffamily%3DJetBrains%2BMono;" parent="iFJsFlJdxSo0Ghs3sPFQ-5" vertex="1">
                    <mxGeometry y="60" width="440" height="26" as="geometry"/>
                </mxCell>
                <mxCell id="iFJsFlJdxSo0Ghs3sPFQ-8" value="+ FDManager(pathname: string, flags: int)" style="text;strokeColor=none;fillColor=none;align=left;verticalAlign=top;spacingLeft=4;spacingRight=4;overflow=hidden;rotatable=0;points=[[0,0.5],[1,0.5]];portConstraint=eastwest;fontFamily=JetBrains Mono;fontSource=https%3A%2F%2Ffonts.googleapis.com%2Fcss%3Ffamily%3DJetBrains%2BMono;" parent="iFJsFlJdxSo0Ghs3sPFQ-5" vertex="1">
                    <mxGeometry y="86" width="440" height="26" as="geometry"/>
                </mxCell>
                <mxCell id="iFJsFlJdxSo0Ghs3sPFQ-40" value="+ FDManager(pathname: string, flags: int, mode: mode_t)" style="text;strokeColor=none;fillColor=none;align=left;verticalAlign=top;spacingLeft=4;spacingRight=4;overflow=hidden;rotatable=0;points=[[0,0.5],[1,0.5]];portConstraint=eastwest;fontFamily=JetBrains Mono;fontSource=https%3A%2F%2Ffonts.googleapis.com%2Fcss%3Ffamily%3DJetBrains%2BMono;" parent="iFJsFlJdxSo0Ghs3sPFQ-5" vertex="1">
                    <mxGeometry y="112" width="440" height="26" as="geometry"/>
                </mxCell>
                <mxCell id="iFJsFlJdxSo0Ghs3sPFQ-110" value="+ readEvent(): void" style="text;strokeColor=none;fillColor=none;align=left;verticalAlign=top;spacingLeft=4;spacingRight=4;overflow=hidden;rotatable=0;points=[[0,0.5],[1,0.5]];portConstraint=eastwest;fontFamily=JetBrains Mono;fontSource=https%3A%2F%2Ffonts.googleapis.com%2Fcss%3Ffamily%3DJetBrains%2BMono;" parent="iFJsFlJdxSo0Ghs3sPFQ-5" vertex="1">
                    <mxGeometry y="138" width="440" height="26" as="geometry"/>
                </mxCell>
                <mxCell id="iFJsFlJdxSo0Ghs3sPFQ-111" value="+ writeEvent(): void" style="text;strokeColor=none;fillColor=none;align=left;verticalAlign=top;spacingLeft=4;spacingRight=4;overflow=hidden;rotatable=0;points=[[0,0.5],[1,0.5]];portConstraint=eastwest;fontFamily=JetBrains Mono;fontSource=https%3A%2F%2Ffonts.googleapis.com%2Fcss%3Ffamily%3DJetBrains%2BMono;" parent="iFJsFlJdxSo0Ghs3sPFQ-5" vertex="1">
                    <mxGeometry y="164" width="440" height="26" as="geometry"/>
                </mxCell>
                <mxCell id="iFJsFlJdxSo0Ghs3sPFQ-23" style="edgeStyle=orthogonalEdgeStyle;orthogonalLoop=1;jettySize=auto;html=1;endArrow=block;endFill=0;fontFamily=JetBrains Mono;rounded=0;fontSource=https%3A%2F%2Ffonts.googleapis.com%2Fcss%3Ffamily%3DJetBrains%2BMono;" parent="1" source="iFJsFlJdxSo0Ghs3sPFQ-9" target="iFJsFlJdxSo0Ghs3sPFQ-5" edge="1">
                    <mxGeometry relative="1" as="geometry">
                        <Array as="points">
                            <mxPoint x="720" y="440"/>
                            <mxPoint x="720" y="280"/>
                            <mxPoint x="981" y="280"/>
                        </Array>
                    </mxGeometry>
                </mxCell>
                <mxCell id="wLigsZPMJS02Pw-tS1Bv-61" style="edgeStyle=orthogonalEdgeStyle;rounded=0;orthogonalLoop=1;jettySize=auto;html=1;fontColor=#7F7F7F;startArrow=none;startFill=0;endArrow=diamondThin;endFill=1;" parent="1" source="iFJsFlJdxSo0Ghs3sPFQ-9" target="wLigsZPMJS02Pw-tS1Bv-30" edge="1">
                    <mxGeometry relative="1" as="geometry"/>
                </mxCell>
                <mxCell id="iFJsFlJdxSo0Ghs3sPFQ-9" value="PortManager" style="swimlane;fontStyle=1;align=center;verticalAlign=top;childLayout=stackLayout;horizontal=1;startSize=26;horizontalStack=0;resizeParent=1;resizeParentMax=0;resizeLast=0;collapsible=1;marginBottom=0;fontFamily=JetBrains Mono;fontSource=https%3A%2F%2Ffonts.googleapis.com%2Fcss%3Ffamily%3DJetBrains%2BMono;" parent="1" vertex="1">
                    <mxGeometry x="761" y="321" width="440" height="216" as="geometry"/>
                </mxCell>
                <mxCell id="iFJsFlJdxSo0Ghs3sPFQ-10" value="- servers: map&lt;string, Server*&gt;" style="text;strokeColor=none;fillColor=none;align=left;verticalAlign=top;spacingLeft=4;spacingRight=4;overflow=hidden;rotatable=0;points=[[0,0.5],[1,0.5]];portConstraint=eastwest;fontFamily=JetBrains Mono;fontSource=https%3A%2F%2Ffonts.googleapis.com%2Fcss%3Ffamily%3DJetBrains%2BMono;" parent="iFJsFlJdxSo0Ghs3sPFQ-9" vertex="1">
                    <mxGeometry y="26" width="440" height="26" as="geometry"/>
                </mxCell>
                <mxCell id="iFJsFlJdxSo0Ghs3sPFQ-112" value="- fd: int" style="text;strokeColor=none;fillColor=none;align=left;verticalAlign=top;spacingLeft=4;spacingRight=4;overflow=hidden;rotatable=0;points=[[0,0.5],[1,0.5]];portConstraint=eastwest;fontFamily=JetBrains Mono;fontSource=https%3A%2F%2Ffonts.googleapis.com%2Fcss%3Ffamily%3DJetBrains%2BMono;fontColor=#7F7F7F;" parent="iFJsFlJdxSo0Ghs3sPFQ-9" vertex="1">
                    <mxGeometry y="52" width="440" height="26" as="geometry"/>
                </mxCell>
                <mxCell id="iFJsFlJdxSo0Ghs3sPFQ-11" value="" style="line;strokeWidth=1;fillColor=none;align=left;verticalAlign=middle;spacingTop=-1;spacingLeft=3;spacingRight=3;rotatable=0;labelPosition=right;points=[];portConstraint=eastwest;fontFamily=JetBrains Mono;fontSource=https%3A%2F%2Ffonts.googleapis.com%2Fcss%3Ffamily%3DJetBrains%2BMono;" parent="iFJsFlJdxSo0Ghs3sPFQ-9" vertex="1">
                    <mxGeometry y="78" width="440" height="8" as="geometry"/>
                </mxCell>
                <mxCell id="iFJsFlJdxSo0Ghs3sPFQ-12" value="+ PortManager(port: int)" style="text;strokeColor=none;fillColor=none;align=left;verticalAlign=top;spacingLeft=4;spacingRight=4;overflow=hidden;rotatable=0;points=[[0,0.5],[1,0.5]];portConstraint=eastwest;fontFamily=JetBrains Mono;fontSource=https%3A%2F%2Ffonts.googleapis.com%2Fcss%3Ffamily%3DJetBrains%2BMono;" parent="iFJsFlJdxSo0Ghs3sPFQ-9" vertex="1">
                    <mxGeometry y="86" width="440" height="26" as="geometry"/>
                </mxCell>
                <mxCell id="iFJsFlJdxSo0Ghs3sPFQ-57" value="+ addServer(server_name: string, server: Server*): void" style="text;strokeColor=none;fillColor=none;align=left;verticalAlign=top;spacingLeft=4;spacingRight=4;overflow=hidden;rotatable=0;points=[[0,0.5],[1,0.5]];portConstraint=eastwest;fontFamily=JetBrains Mono;fontSource=https%3A%2F%2Ffonts.googleapis.com%2Fcss%3Ffamily%3DJetBrains%2BMono;" parent="iFJsFlJdxSo0Ghs3sPFQ-9" vertex="1">
                    <mxGeometry y="112" width="440" height="26" as="geometry"/>
                </mxCell>
                <mxCell id="iFJsFlJdxSo0Ghs3sPFQ-59" value="+ processRequest(dialogue: Dialogue): void" style="text;strokeColor=none;fillColor=none;align=left;verticalAlign=top;spacingLeft=4;spacingRight=4;overflow=hidden;rotatable=0;points=[[0,0.5],[1,0.5]];portConstraint=eastwest;fontFamily=JetBrains Mono;fontSource=https%3A%2F%2Ffonts.googleapis.com%2Fcss%3Ffamily%3DJetBrains%2BMono;" parent="iFJsFlJdxSo0Ghs3sPFQ-9" vertex="1">
                    <mxGeometry y="138" width="440" height="26" as="geometry"/>
                </mxCell>
                <mxCell id="iFJsFlJdxSo0Ghs3sPFQ-118" value="+ readEvent(): void" style="text;strokeColor=none;fillColor=none;align=left;verticalAlign=top;spacingLeft=4;spacingRight=4;overflow=hidden;rotatable=0;points=[[0,0.5],[1,0.5]];portConstraint=eastwest;fontFamily=JetBrains Mono;fontSource=https%3A%2F%2Ffonts.googleapis.com%2Fcss%3Ffamily%3DJetBrains%2BMono;fontColor=#7F7F7F;" parent="iFJsFlJdxSo0Ghs3sPFQ-9" vertex="1">
                    <mxGeometry y="164" width="440" height="26" as="geometry"/>
                </mxCell>
                <mxCell id="iFJsFlJdxSo0Ghs3sPFQ-119" value="+ writeEvent(): void" style="text;strokeColor=none;fillColor=none;align=left;verticalAlign=top;spacingLeft=4;spacingRight=4;overflow=hidden;rotatable=0;points=[[0,0.5],[1,0.5]];portConstraint=eastwest;fontFamily=JetBrains Mono;fontSource=https%3A%2F%2Ffonts.googleapis.com%2Fcss%3Ffamily%3DJetBrains%2BMono;fontColor=#7F7F7F;" parent="iFJsFlJdxSo0Ghs3sPFQ-9" vertex="1">
                    <mxGeometry y="190" width="440" height="26" as="geometry"/>
                </mxCell>
                <mxCell id="iFJsFlJdxSo0Ghs3sPFQ-24" style="edgeStyle=orthogonalEdgeStyle;orthogonalLoop=1;jettySize=auto;html=1;endArrow=block;endFill=0;fontFamily=JetBrains Mono;rounded=0;fontSource=https%3A%2F%2Ffonts.googleapis.com%2Fcss%3Ffamily%3DJetBrains%2BMono;" parent="1" source="iFJsFlJdxSo0Ghs3sPFQ-13" target="iFJsFlJdxSo0Ghs3sPFQ-5" edge="1">
                    <mxGeometry relative="1" as="geometry">
                        <Array as="points">
                            <mxPoint x="720" y="721"/>
                            <mxPoint x="720" y="280"/>
                            <mxPoint x="981" y="280"/>
                        </Array>
                    </mxGeometry>
                </mxCell>
                <mxCell id="iFJsFlJdxSo0Ghs3sPFQ-26" style="edgeStyle=orthogonalEdgeStyle;orthogonalLoop=1;jettySize=auto;html=1;endArrow=openThin;endFill=0;fontFamily=JetBrains Mono;rounded=0;fontSource=https%3A%2F%2Ffonts.googleapis.com%2Fcss%3Ffamily%3DJetBrains%2BMono;" parent="1" source="iFJsFlJdxSo0Ghs3sPFQ-13" target="iFJsFlJdxSo0Ghs3sPFQ-9" edge="1">
                    <mxGeometry relative="1" as="geometry">
                        <mxPoint x="840.0344827586207" y="426" as="targetPoint"/>
                    </mxGeometry>
                </mxCell>
                <mxCell id="wLigsZPMJS02Pw-tS1Bv-2" style="edgeStyle=orthogonalEdgeStyle;rounded=0;orthogonalLoop=1;jettySize=auto;html=1;fontColor=#7F7F7F;endArrow=diamondThin;endFill=1;" parent="1" source="iFJsFlJdxSo0Ghs3sPFQ-13" target="iFJsFlJdxSo0Ghs3sPFQ-28" edge="1">
                    <mxGeometry relative="1" as="geometry">
                        <Array as="points">
                            <mxPoint x="1220" y="920"/>
                            <mxPoint x="1220" y="736"/>
                        </Array>
                    </mxGeometry>
                </mxCell>
                <mxCell id="wLigsZPMJS02Pw-tS1Bv-3" style="edgeStyle=orthogonalEdgeStyle;rounded=0;orthogonalLoop=1;jettySize=auto;html=1;fontColor=#7F7F7F;endArrow=diamondThin;endFill=1;" parent="1" source="iFJsFlJdxSo0Ghs3sPFQ-13" target="iFJsFlJdxSo0Ghs3sPFQ-32" edge="1">
                    <mxGeometry relative="1" as="geometry">
                        <Array as="points">
                            <mxPoint x="1220" y="920"/>
                            <mxPoint x="1220" y="810"/>
                            <mxPoint x="1580" y="810"/>
                            <mxPoint x="1580" y="749"/>
                        </Array>
                        <mxPoint x="1240" y="940" as="sourcePoint"/>
                    </mxGeometry>
                </mxCell>
                <mxCell id="iFJsFlJdxSo0Ghs3sPFQ-13" value="Client" style="swimlane;fontStyle=1;align=center;verticalAlign=top;childLayout=stackLayout;horizontal=1;startSize=26;horizontalStack=0;resizeParent=1;resizeParentMax=0;resizeLast=0;collapsible=1;marginBottom=0;fontFamily=JetBrains Mono;fontSource=https%3A%2F%2Ffonts.googleapis.com%2Fcss%3Ffamily%3DJetBrains%2BMono;" parent="1" vertex="1">
                    <mxGeometry x="761" y="800" width="440" height="242" as="geometry"/>
                </mxCell>
                <mxCell id="iFJsFlJdxSo0Ghs3sPFQ-62" value="- pm: PortManager*" style="text;strokeColor=none;fillColor=none;align=left;verticalAlign=top;spacingLeft=4;spacingRight=4;overflow=hidden;rotatable=0;points=[[0,0.5],[1,0.5]];portConstraint=eastwest;fontFamily=JetBrains Mono;fontSource=https%3A%2F%2Ffonts.googleapis.com%2Fcss%3Ffamily%3DJetBrains%2BMono;" parent="iFJsFlJdxSo0Ghs3sPFQ-13" vertex="1">
                    <mxGeometry y="26" width="440" height="26" as="geometry"/>
                </mxCell>
                <mxCell id="iFJsFlJdxSo0Ghs3sPFQ-14" value="- reader: RequestReader" style="text;strokeColor=none;fillColor=none;align=left;verticalAlign=top;spacingLeft=4;spacingRight=4;overflow=hidden;rotatable=0;points=[[0,0.5],[1,0.5]];portConstraint=eastwest;fontFamily=JetBrains Mono;fontSource=https%3A%2F%2Ffonts.googleapis.com%2Fcss%3Ffamily%3DJetBrains%2BMono;" parent="iFJsFlJdxSo0Ghs3sPFQ-13" vertex="1">
                    <mxGeometry y="52" width="440" height="26" as="geometry"/>
                </mxCell>
                <mxCell id="iFJsFlJdxSo0Ghs3sPFQ-43" value="- writer: ResponseWriter" style="text;strokeColor=none;fillColor=none;align=left;verticalAlign=top;spacingLeft=4;spacingRight=4;overflow=hidden;rotatable=0;points=[[0,0.5],[1,0.5]];portConstraint=eastwest;fontFamily=JetBrains Mono;fontSource=https%3A%2F%2Ffonts.googleapis.com%2Fcss%3Ffamily%3DJetBrains%2BMono;" parent="iFJsFlJdxSo0Ghs3sPFQ-13" vertex="1">
                    <mxGeometry y="78" width="440" height="26" as="geometry"/>
                </mxCell>
                <mxCell id="iFJsFlJdxSo0Ghs3sPFQ-55" value="- dialogues: queue&lt;Dialogue*&gt;" style="text;strokeColor=none;fillColor=none;align=left;verticalAlign=top;spacingLeft=4;spacingRight=4;overflow=hidden;rotatable=0;points=[[0,0.5],[1,0.5]];portConstraint=eastwest;fontFamily=JetBrains Mono;fontSource=https%3A%2F%2Ffonts.googleapis.com%2Fcss%3Ffamily%3DJetBrains%2BMono;" parent="iFJsFlJdxSo0Ghs3sPFQ-13" vertex="1">
                    <mxGeometry y="104" width="440" height="26" as="geometry"/>
                </mxCell>
                <mxCell id="iFJsFlJdxSo0Ghs3sPFQ-116" value="- fd: int" style="text;strokeColor=none;fillColor=none;align=left;verticalAlign=top;spacingLeft=4;spacingRight=4;overflow=hidden;rotatable=0;points=[[0,0.5],[1,0.5]];portConstraint=eastwest;fontFamily=JetBrains Mono;fontSource=https%3A%2F%2Ffonts.googleapis.com%2Fcss%3Ffamily%3DJetBrains%2BMono;fontColor=#7F7F7F;" parent="iFJsFlJdxSo0Ghs3sPFQ-13" vertex="1">
                    <mxGeometry y="130" width="440" height="26" as="geometry"/>
                </mxCell>
                <mxCell id="iFJsFlJdxSo0Ghs3sPFQ-15" value="" style="line;strokeWidth=1;fillColor=none;align=left;verticalAlign=middle;spacingTop=-1;spacingLeft=3;spacingRight=3;rotatable=0;labelPosition=right;points=[];portConstraint=eastwest;fontFamily=JetBrains Mono;fontSource=https%3A%2F%2Ffonts.googleapis.com%2Fcss%3Ffamily%3DJetBrains%2BMono;" parent="iFJsFlJdxSo0Ghs3sPFQ-13" vertex="1">
                    <mxGeometry y="156" width="440" height="8" as="geometry"/>
                </mxCell>
                <mxCell id="iFJsFlJdxSo0Ghs3sPFQ-16" value="+ Client(PortManager *pm)" style="text;strokeColor=none;fillColor=none;align=left;verticalAlign=top;spacingLeft=4;spacingRight=4;overflow=hidden;rotatable=0;points=[[0,0.5],[1,0.5]];portConstraint=eastwest;fontFamily=JetBrains Mono;fontSource=https%3A%2F%2Ffonts.googleapis.com%2Fcss%3Ffamily%3DJetBrains%2BMono;" parent="iFJsFlJdxSo0Ghs3sPFQ-13" vertex="1">
                    <mxGeometry y="164" width="440" height="26" as="geometry"/>
                </mxCell>
                <mxCell id="iFJsFlJdxSo0Ghs3sPFQ-120" value="+ readEvent(): void" style="text;strokeColor=none;fillColor=none;align=left;verticalAlign=top;spacingLeft=4;spacingRight=4;overflow=hidden;rotatable=0;points=[[0,0.5],[1,0.5]];portConstraint=eastwest;fontFamily=JetBrains Mono;fontSource=https%3A%2F%2Ffonts.googleapis.com%2Fcss%3Ffamily%3DJetBrains%2BMono;fontColor=#7F7F7F;" parent="iFJsFlJdxSo0Ghs3sPFQ-13" vertex="1">
                    <mxGeometry y="190" width="440" height="26" as="geometry"/>
                </mxCell>
                <mxCell id="iFJsFlJdxSo0Ghs3sPFQ-121" value="+ writeEvent(): void" style="text;strokeColor=none;fillColor=none;align=left;verticalAlign=top;spacingLeft=4;spacingRight=4;overflow=hidden;rotatable=0;points=[[0,0.5],[1,0.5]];portConstraint=eastwest;fontFamily=JetBrains Mono;fontSource=https%3A%2F%2Ffonts.googleapis.com%2Fcss%3Ffamily%3DJetBrains%2BMono;fontColor=#7F7F7F;" parent="iFJsFlJdxSo0Ghs3sPFQ-13" vertex="1">
                    <mxGeometry y="216" width="440" height="26" as="geometry"/>
                </mxCell>
                <mxCell id="iFJsFlJdxSo0Ghs3sPFQ-25" style="edgeStyle=orthogonalEdgeStyle;orthogonalLoop=1;jettySize=auto;html=1;endArrow=block;endFill=0;fontFamily=JetBrains Mono;rounded=0;fontSource=https%3A%2F%2Ffonts.googleapis.com%2Fcss%3Ffamily%3DJetBrains%2BMono;" parent="1" source="iFJsFlJdxSo0Ghs3sPFQ-17" target="iFJsFlJdxSo0Ghs3sPFQ-5" edge="1">
                    <mxGeometry relative="1" as="geometry">
                        <Array as="points">
                            <mxPoint x="720" y="1412"/>
                            <mxPoint x="720" y="280"/>
                            <mxPoint x="981" y="280"/>
                        </Array>
                    </mxGeometry>
                </mxCell>
                <mxCell id="iFJsFlJdxSo0Ghs3sPFQ-27" style="edgeStyle=orthogonalEdgeStyle;orthogonalLoop=1;jettySize=auto;html=1;endArrow=openThin;endFill=0;fontFamily=JetBrains Mono;fontSource=https%3A%2F%2Ffonts.googleapis.com%2Fcss%3Ffamily%3DJetBrains%2BMono;rounded=0;" parent="1" source="iFJsFlJdxSo0Ghs3sPFQ-17" target="iFJsFlJdxSo0Ghs3sPFQ-49" edge="1">
                    <mxGeometry relative="1" as="geometry">
                        <Array as="points">
                            <mxPoint x="970" y="1220"/>
                            <mxPoint x="970" y="1220"/>
                        </Array>
                    </mxGeometry>
                </mxCell>
                <mxCell id="iFJsFlJdxSo0Ghs3sPFQ-17" value="Resource" style="swimlane;fontStyle=1;align=center;verticalAlign=top;childLayout=stackLayout;horizontal=1;startSize=26;horizontalStack=0;resizeParent=1;resizeParentMax=0;resizeLast=0;collapsible=1;marginBottom=0;fontFamily=JetBrains Mono;fontSource=https%3A%2F%2Ffonts.googleapis.com%2Fcss%3Ffamily%3DJetBrains%2BMono;" parent="1" vertex="1">
                    <mxGeometry x="761" y="1330" width="440" height="164" as="geometry"/>
                </mxCell>
                <mxCell id="01LKnUzwDYek3KCBofWs-8" value="- dialogue: Dialogue*" style="text;strokeColor=none;fillColor=none;align=left;verticalAlign=top;spacingLeft=4;spacingRight=4;overflow=hidden;rotatable=0;points=[[0,0.5],[1,0.5]];portConstraint=eastwest;fontFamily=JetBrains Mono;fontSource=https%3A%2F%2Ffonts.googleapis.com%2Fcss%3Ffamily%3DJetBrains%2BMono;" parent="iFJsFlJdxSo0Ghs3sPFQ-17" vertex="1">
                    <mxGeometry y="26" width="440" height="26" as="geometry"/>
                </mxCell>
                <mxCell id="iFJsFlJdxSo0Ghs3sPFQ-117" value="- fd: int" style="text;strokeColor=none;fillColor=none;align=left;verticalAlign=top;spacingLeft=4;spacingRight=4;overflow=hidden;rotatable=0;points=[[0,0.5],[1,0.5]];portConstraint=eastwest;fontFamily=JetBrains Mono;fontSource=https%3A%2F%2Ffonts.googleapis.com%2Fcss%3Ffamily%3DJetBrains%2BMono;fontColor=#7F7F7F;" parent="iFJsFlJdxSo0Ghs3sPFQ-17" vertex="1">
                    <mxGeometry y="52" width="440" height="26" as="geometry"/>
                </mxCell>
                <mxCell id="iFJsFlJdxSo0Ghs3sPFQ-19" value="" style="line;strokeWidth=1;fillColor=none;align=left;verticalAlign=middle;spacingTop=-1;spacingLeft=3;spacingRight=3;rotatable=0;labelPosition=right;points=[];portConstraint=eastwest;fontFamily=JetBrains Mono;fontSource=https%3A%2F%2Ffonts.googleapis.com%2Fcss%3Ffamily%3DJetBrains%2BMono;" parent="iFJsFlJdxSo0Ghs3sPFQ-17" vertex="1">
                    <mxGeometry y="78" width="440" height="8" as="geometry"/>
                </mxCell>
                <mxCell id="iFJsFlJdxSo0Ghs3sPFQ-20" value="+ Resource(dialogue: Dialogue*)" style="text;strokeColor=none;fillColor=none;align=left;verticalAlign=top;spacingLeft=4;spacingRight=4;overflow=hidden;rotatable=0;points=[[0,0.5],[1,0.5]];portConstraint=eastwest;fontFamily=JetBrains Mono;fontSource=https%3A%2F%2Ffonts.googleapis.com%2Fcss%3Ffamily%3DJetBrains%2BMono;" parent="iFJsFlJdxSo0Ghs3sPFQ-17" vertex="1">
                    <mxGeometry y="86" width="440" height="26" as="geometry"/>
                </mxCell>
                <mxCell id="iFJsFlJdxSo0Ghs3sPFQ-122" value="+ readEvent(): void" style="text;strokeColor=none;fillColor=none;align=left;verticalAlign=top;spacingLeft=4;spacingRight=4;overflow=hidden;rotatable=0;points=[[0,0.5],[1,0.5]];portConstraint=eastwest;fontFamily=JetBrains Mono;fontSource=https%3A%2F%2Ffonts.googleapis.com%2Fcss%3Ffamily%3DJetBrains%2BMono;fontColor=#7F7F7F;" parent="iFJsFlJdxSo0Ghs3sPFQ-17" vertex="1">
                    <mxGeometry y="112" width="440" height="26" as="geometry"/>
                </mxCell>
                <mxCell id="iFJsFlJdxSo0Ghs3sPFQ-123" value="+ writeEvent(): void" style="text;strokeColor=none;fillColor=none;align=left;verticalAlign=top;spacingLeft=4;spacingRight=4;overflow=hidden;rotatable=0;points=[[0,0.5],[1,0.5]];portConstraint=eastwest;fontFamily=JetBrains Mono;fontSource=https%3A%2F%2Ffonts.googleapis.com%2Fcss%3Ffamily%3DJetBrains%2BMono;fontColor=#7F7F7F;" parent="iFJsFlJdxSo0Ghs3sPFQ-17" vertex="1">
                    <mxGeometry y="138" width="440" height="26" as="geometry"/>
                </mxCell>
                <mxCell id="iFJsFlJdxSo0Ghs3sPFQ-28" value="RequestReader" style="swimlane;fontStyle=1;align=center;verticalAlign=top;childLayout=stackLayout;horizontal=1;startSize=26;horizontalStack=0;resizeParent=1;resizeParentMax=0;resizeLast=0;collapsible=1;marginBottom=0;fontFamily=JetBrains Mono;fontSource=https%3A%2F%2Ffonts.googleapis.com%2Fcss%3Ffamily%3DJetBrains%2BMono;" parent="1" vertex="1">
                    <mxGeometry x="1280" y="680" width="280" height="112" as="geometry"/>
                </mxCell>
                <mxCell id="iFJsFlJdxSo0Ghs3sPFQ-29" value="- buffer: string" style="text;strokeColor=none;fillColor=none;align=left;verticalAlign=top;spacingLeft=4;spacingRight=4;overflow=hidden;rotatable=0;points=[[0,0.5],[1,0.5]];portConstraint=eastwest;fontFamily=JetBrains Mono;fontSource=https%3A%2F%2Ffonts.googleapis.com%2Fcss%3Ffamily%3DJetBrains%2BMono;" parent="iFJsFlJdxSo0Ghs3sPFQ-28" vertex="1">
                    <mxGeometry y="26" width="280" height="26" as="geometry"/>
                </mxCell>
                <mxCell id="iFJsFlJdxSo0Ghs3sPFQ-30" value="" style="line;strokeWidth=1;fillColor=none;align=left;verticalAlign=middle;spacingTop=-1;spacingLeft=3;spacingRight=3;rotatable=0;labelPosition=right;points=[];portConstraint=eastwest;fontFamily=JetBrains Mono;fontSource=https%3A%2F%2Ffonts.googleapis.com%2Fcss%3Ffamily%3DJetBrains%2BMono;" parent="iFJsFlJdxSo0Ghs3sPFQ-28" vertex="1">
                    <mxGeometry y="52" width="280" height="8" as="geometry"/>
                </mxCell>
                <mxCell id="iFJsFlJdxSo0Ghs3sPFQ-31" value="+ readRequest(): void" style="text;strokeColor=none;fillColor=none;align=left;verticalAlign=top;spacingLeft=4;spacingRight=4;overflow=hidden;rotatable=0;points=[[0,0.5],[1,0.5]];portConstraint=eastwest;fontFamily=JetBrains Mono;fontSource=https%3A%2F%2Ffonts.googleapis.com%2Fcss%3Ffamily%3DJetBrains%2BMono;" parent="iFJsFlJdxSo0Ghs3sPFQ-28" vertex="1">
                    <mxGeometry y="60" width="280" height="26" as="geometry"/>
                </mxCell>
                <mxCell id="iFJsFlJdxSo0Ghs3sPFQ-56" value="+ parseRequest(): Dialogue*" style="text;strokeColor=none;fillColor=none;align=left;verticalAlign=top;spacingLeft=4;spacingRight=4;overflow=hidden;rotatable=0;points=[[0,0.5],[1,0.5]];portConstraint=eastwest;fontFamily=JetBrains Mono;fontSource=https%3A%2F%2Ffonts.googleapis.com%2Fcss%3Ffamily%3DJetBrains%2BMono;" parent="iFJsFlJdxSo0Ghs3sPFQ-28" vertex="1">
                    <mxGeometry y="86" width="280" height="26" as="geometry"/>
                </mxCell>
                <mxCell id="iFJsFlJdxSo0Ghs3sPFQ-32" value="ResponseWriter" style="swimlane;fontStyle=1;align=center;verticalAlign=top;childLayout=stackLayout;horizontal=1;startSize=26;horizontalStack=0;resizeParent=1;resizeParentMax=0;resizeLast=0;collapsible=1;marginBottom=0;fontFamily=JetBrains Mono;fontSource=https%3A%2F%2Ffonts.googleapis.com%2Fcss%3Ffamily%3DJetBrains%2BMono;" parent="1" vertex="1">
                    <mxGeometry x="1600" y="680" width="280" height="138" as="geometry"/>
                </mxCell>
                <mxCell id="iFJsFlJdxSo0Ghs3sPFQ-33" value="- buffer: string" style="text;strokeColor=none;fillColor=none;align=left;verticalAlign=top;spacingLeft=4;spacingRight=4;overflow=hidden;rotatable=0;points=[[0,0.5],[1,0.5]];portConstraint=eastwest;fontFamily=JetBrains Mono;fontSource=https%3A%2F%2Ffonts.googleapis.com%2Fcss%3Ffamily%3DJetBrains%2BMono;" parent="iFJsFlJdxSo0Ghs3sPFQ-32" vertex="1">
                    <mxGeometry y="26" width="280" height="26" as="geometry"/>
                </mxCell>
                <mxCell id="iFJsFlJdxSo0Ghs3sPFQ-34" value="" style="line;strokeWidth=1;fillColor=none;align=left;verticalAlign=middle;spacingTop=-1;spacingLeft=3;spacingRight=3;rotatable=0;labelPosition=right;points=[];portConstraint=eastwest;fontFamily=JetBrains Mono;fontSource=https%3A%2F%2Ffonts.googleapis.com%2Fcss%3Ffamily%3DJetBrains%2BMono;" parent="iFJsFlJdxSo0Ghs3sPFQ-32" vertex="1">
                    <mxGeometry y="52" width="280" height="8" as="geometry"/>
                </mxCell>
                <mxCell id="wLigsZPMJS02Pw-tS1Bv-16" value="+ emptyBuffer(): bool" style="text;strokeColor=none;fillColor=none;align=left;verticalAlign=top;spacingLeft=4;spacingRight=4;overflow=hidden;rotatable=0;points=[[0,0.5],[1,0.5]];portConstraint=eastwest;fontFamily=JetBrains Mono;fontSource=https%3A%2F%2Ffonts.googleapis.com%2Fcss%3Ffamily%3DJetBrains%2BMono;" parent="iFJsFlJdxSo0Ghs3sPFQ-32" vertex="1">
                    <mxGeometry y="60" width="280" height="26" as="geometry"/>
                </mxCell>
                <mxCell id="iFJsFlJdxSo0Ghs3sPFQ-35" value="+ holdResponse(res: Response*): void" style="text;strokeColor=none;fillColor=none;align=left;verticalAlign=top;spacingLeft=4;spacingRight=4;overflow=hidden;rotatable=0;points=[[0,0.5],[1,0.5]];portConstraint=eastwest;fontFamily=JetBrains Mono;fontSource=https%3A%2F%2Ffonts.googleapis.com%2Fcss%3Ffamily%3DJetBrains%2BMono;" parent="iFJsFlJdxSo0Ghs3sPFQ-32" vertex="1">
                    <mxGeometry y="86" width="280" height="26" as="geometry"/>
                </mxCell>
                <mxCell id="iFJsFlJdxSo0Ghs3sPFQ-58" value="+ writeResponse(): void" style="text;strokeColor=none;fillColor=none;align=left;verticalAlign=top;spacingLeft=4;spacingRight=4;overflow=hidden;rotatable=0;points=[[0,0.5],[1,0.5]];portConstraint=eastwest;fontFamily=JetBrains Mono;fontSource=https%3A%2F%2Ffonts.googleapis.com%2Fcss%3Ffamily%3DJetBrains%2BMono;" parent="iFJsFlJdxSo0Ghs3sPFQ-32" vertex="1">
                    <mxGeometry y="112" width="280" height="26" as="geometry"/>
                </mxCell>
                <mxCell id="wLigsZPMJS02Pw-tS1Bv-27" style="edgeStyle=orthogonalEdgeStyle;rounded=0;orthogonalLoop=1;jettySize=auto;html=1;fontColor=#7F7F7F;endArrow=none;endFill=0;startArrow=openThin;startFill=0;" parent="1" source="iFJsFlJdxSo0Ghs3sPFQ-49" target="iFJsFlJdxSo0Ghs3sPFQ-28" edge="1">
                    <mxGeometry relative="1" as="geometry">
                        <mxPoint x="1550" y="856" as="targetPoint"/>
                        <Array as="points">
                            <mxPoint x="1240" y="1160"/>
                            <mxPoint x="1240" y="840"/>
                            <mxPoint x="1420" y="840"/>
                        </Array>
                    </mxGeometry>
                </mxCell>
                <mxCell id="wLigsZPMJS02Pw-tS1Bv-28" style="edgeStyle=orthogonalEdgeStyle;rounded=0;orthogonalLoop=1;jettySize=auto;html=1;fontColor=#7F7F7F;endArrow=none;endFill=0;startArrow=openThin;startFill=0;" parent="1" source="iFJsFlJdxSo0Ghs3sPFQ-49" target="iFJsFlJdxSo0Ghs3sPFQ-32" edge="1">
                    <mxGeometry relative="1" as="geometry">
                        <Array as="points">
                            <mxPoint x="1240" y="1160"/>
                            <mxPoint x="1240" y="840"/>
                            <mxPoint x="1740" y="840"/>
                        </Array>
                    </mxGeometry>
                </mxCell>
                <mxCell id="iFJsFlJdxSo0Ghs3sPFQ-49" value="Dialogue" style="swimlane;fontStyle=1;childLayout=stackLayout;horizontal=1;startSize=26;fillColor=none;horizontalStack=0;resizeParent=1;resizeParentMax=0;resizeLast=0;collapsible=1;marginBottom=0;fontFamily=JetBrains Mono;fontSource=https%3A%2F%2Ffonts.googleapis.com%2Fcss%3Ffamily%3DJetBrains%2BMono;" parent="1" vertex="1">
                    <mxGeometry x="901" y="1120" width="160" height="130" as="geometry"/>
                </mxCell>
                <mxCell id="iFJsFlJdxSo0Ghs3sPFQ-85" value="+ client: Client*" style="text;strokeColor=none;fillColor=none;align=left;verticalAlign=top;spacingLeft=4;spacingRight=4;overflow=hidden;rotatable=0;points=[[0,0.5],[1,0.5]];portConstraint=eastwest;fontFamily=JetBrains Mono;fontSource=https%3A%2F%2Ffonts.googleapis.com%2Fcss%3Ffamily%3DJetBrains%2BMono;" parent="iFJsFlJdxSo0Ghs3sPFQ-49" vertex="1">
                    <mxGeometry y="26" width="160" height="26" as="geometry"/>
                </mxCell>
                <mxCell id="iFJsFlJdxSo0Ghs3sPFQ-53" value="+ req: Request" style="text;strokeColor=none;fillColor=none;align=left;verticalAlign=top;spacingLeft=4;spacingRight=4;overflow=hidden;rotatable=0;points=[[0,0.5],[1,0.5]];portConstraint=eastwest;fontFamily=JetBrains Mono;fontSource=https%3A%2F%2Ffonts.googleapis.com%2Fcss%3Ffamily%3DJetBrains%2BMono;" parent="iFJsFlJdxSo0Ghs3sPFQ-49" vertex="1">
                    <mxGeometry y="52" width="160" height="26" as="geometry"/>
                </mxCell>
                <mxCell id="iFJsFlJdxSo0Ghs3sPFQ-54" value="+ res: Response" style="text;strokeColor=none;fillColor=none;align=left;verticalAlign=top;spacingLeft=4;spacingRight=4;overflow=hidden;rotatable=0;points=[[0,0.5],[1,0.5]];portConstraint=eastwest;fontFamily=JetBrains Mono;fontSource=https%3A%2F%2Ffonts.googleapis.com%2Fcss%3Ffamily%3DJetBrains%2BMono;" parent="iFJsFlJdxSo0Ghs3sPFQ-49" vertex="1">
                    <mxGeometry y="78" width="160" height="26" as="geometry"/>
                </mxCell>
                <mxCell id="wLigsZPMJS02Pw-tS1Bv-63" value="+ status: Status" style="text;strokeColor=none;fillColor=none;align=left;verticalAlign=top;spacingLeft=4;spacingRight=4;overflow=hidden;rotatable=0;points=[[0,0.5],[1,0.5]];portConstraint=eastwest;fontFamily=JetBrains Mono;fontSource=https%3A%2F%2Ffonts.googleapis.com%2Fcss%3Ffamily%3DJetBrains%2BMono;fontStyle=0" parent="iFJsFlJdxSo0Ghs3sPFQ-49" vertex="1">
                    <mxGeometry y="104" width="160" height="26" as="geometry"/>
                </mxCell>
                <mxCell id="wLigsZPMJS02Pw-tS1Bv-1" style="edgeStyle=orthogonalEdgeStyle;rounded=0;orthogonalLoop=1;jettySize=auto;html=1;fontColor=#7F7F7F;endArrow=diamondThin;endFill=1;startArrow=open;startFill=0;" parent="1" source="iFJsFlJdxSo0Ghs3sPFQ-13" target="iFJsFlJdxSo0Ghs3sPFQ-49" edge="1">
                    <mxGeometry relative="1" as="geometry">
                        <Array as="points">
                            <mxPoint x="981" y="1070"/>
                            <mxPoint x="981" y="1070"/>
                        </Array>
                    </mxGeometry>
                </mxCell>
                <mxCell id="wLigsZPMJS02Pw-tS1Bv-7" value="EventHandlerInstance" style="swimlane;fontStyle=1;align=center;verticalAlign=top;childLayout=stackLayout;horizontal=1;startSize=26;horizontalStack=0;resizeParent=1;resizeParentMax=0;resizeLast=0;collapsible=1;marginBottom=0;fontFamily=JetBrains Mono;fontSource=https%3A%2F%2Ffonts.googleapis.com%2Fcss%3Ffamily%3DJetBrains%2BMono;" parent="1" vertex="1">
                    <mxGeometry x="40" y="40" width="240" height="112" as="geometry"/>
                </mxCell>
                <mxCell id="wLigsZPMJS02Pw-tS1Bv-8" value="- instance: EventHandler" style="text;strokeColor=none;fillColor=none;align=left;verticalAlign=top;spacingLeft=4;spacingRight=4;overflow=hidden;rotatable=0;points=[[0,0.5],[1,0.5]];portConstraint=eastwest;fontFamily=JetBrains Mono;fontSource=https%3A%2F%2Ffonts.googleapis.com%2Fcss%3Ffamily%3DJetBrains%2BMono;" parent="wLigsZPMJS02Pw-tS1Bv-7" vertex="1">
                    <mxGeometry y="26" width="240" height="26" as="geometry"/>
                </mxCell>
                <mxCell id="wLigsZPMJS02Pw-tS1Bv-9" value="" style="line;strokeWidth=1;fillColor=none;align=left;verticalAlign=middle;spacingTop=-1;spacingLeft=3;spacingRight=3;rotatable=0;labelPosition=right;points=[];portConstraint=eastwest;fontFamily=JetBrains Mono;fontSource=https%3A%2F%2Ffonts.googleapis.com%2Fcss%3Ffamily%3DJetBrains%2BMono;" parent="wLigsZPMJS02Pw-tS1Bv-7" vertex="1">
                    <mxGeometry y="52" width="240" height="8" as="geometry"/>
                </mxCell>
                <mxCell id="wLigsZPMJS02Pw-tS1Bv-10" value="+ EventHandlerInstance()" style="text;strokeColor=none;fillColor=none;align=left;verticalAlign=top;spacingLeft=4;spacingRight=4;overflow=hidden;rotatable=0;points=[[0,0.5],[1,0.5]];portConstraint=eastwest;fontFamily=JetBrains Mono;fontSource=https%3A%2F%2Ffonts.googleapis.com%2Fcss%3Ffamily%3DJetBrains%2BMono;" parent="wLigsZPMJS02Pw-tS1Bv-7" vertex="1">
                    <mxGeometry y="60" width="240" height="26" as="geometry"/>
                </mxCell>
                <mxCell id="wLigsZPMJS02Pw-tS1Bv-11" value="+ getInstance(): EventHandler&amp;" style="text;strokeColor=none;fillColor=none;align=left;verticalAlign=top;spacingLeft=4;spacingRight=4;overflow=hidden;rotatable=0;points=[[0,0.5],[1,0.5]];portConstraint=eastwest;fontFamily=JetBrains Mono;fontSource=https%3A%2F%2Ffonts.googleapis.com%2Fcss%3Ffamily%3DJetBrains%2BMono;" parent="wLigsZPMJS02Pw-tS1Bv-7" vertex="1">
                    <mxGeometry y="86" width="240" height="26" as="geometry"/>
                </mxCell>
                <mxCell id="wLigsZPMJS02Pw-tS1Bv-17" value="CGIReader" style="swimlane;fontStyle=1;align=center;verticalAlign=top;childLayout=stackLayout;horizontal=1;startSize=26;horizontalStack=0;resizeParent=1;resizeParentMax=0;resizeLast=0;collapsible=1;marginBottom=0;fontFamily=JetBrains Mono;fontSource=https%3A%2F%2Ffonts.googleapis.com%2Fcss%3Ffamily%3DJetBrains%2BMono;" parent="1" vertex="1">
                    <mxGeometry x="641" y="1828" width="320" height="164" as="geometry"/>
                </mxCell>
                <mxCell id="01LKnUzwDYek3KCBofWs-21" value="- res: Resource*" style="text;strokeColor=none;fillColor=none;align=left;verticalAlign=top;spacingLeft=4;spacingRight=4;overflow=hidden;rotatable=0;points=[[0,0.5],[1,0.5]];portConstraint=eastwest;fontFamily=JetBrains Mono;fontSource=https%3A%2F%2Ffonts.googleapis.com%2Fcss%3Ffamily%3DJetBrains%2BMono;" parent="wLigsZPMJS02Pw-tS1Bv-17" vertex="1">
                    <mxGeometry y="26" width="320" height="26" as="geometry"/>
                </mxCell>
                <mxCell id="01LKnUzwDYek3KCBofWs-2" value="- fd: int" style="text;strokeColor=none;fillColor=none;align=left;verticalAlign=top;spacingLeft=4;spacingRight=4;overflow=hidden;rotatable=0;points=[[0,0.5],[1,0.5]];portConstraint=eastwest;fontFamily=JetBrains Mono;fontSource=https%3A%2F%2Ffonts.googleapis.com%2Fcss%3Ffamily%3DJetBrains%2BMono;fontColor=#7F7F7F;" parent="wLigsZPMJS02Pw-tS1Bv-17" vertex="1">
                    <mxGeometry y="52" width="320" height="26" as="geometry"/>
                </mxCell>
                <mxCell id="wLigsZPMJS02Pw-tS1Bv-19" value="" style="line;strokeWidth=1;fillColor=none;align=left;verticalAlign=middle;spacingTop=-1;spacingLeft=3;spacingRight=3;rotatable=0;labelPosition=right;points=[];portConstraint=eastwest;fontFamily=JetBrains Mono;fontSource=https%3A%2F%2Ffonts.googleapis.com%2Fcss%3Ffamily%3DJetBrains%2BMono;" parent="wLigsZPMJS02Pw-tS1Bv-17" vertex="1">
                    <mxGeometry y="78" width="320" height="8" as="geometry"/>
                </mxCell>
                <mxCell id="wLigsZPMJS02Pw-tS1Bv-20" value="+ CGIReader(): void" style="text;strokeColor=none;fillColor=none;align=left;verticalAlign=top;spacingLeft=4;spacingRight=4;overflow=hidden;rotatable=0;points=[[0,0.5],[1,0.5]];portConstraint=eastwest;fontFamily=JetBrains Mono;fontSource=https%3A%2F%2Ffonts.googleapis.com%2Fcss%3Ffamily%3DJetBrains%2BMono;" parent="wLigsZPMJS02Pw-tS1Bv-17" vertex="1">
                    <mxGeometry y="86" width="320" height="26" as="geometry"/>
                </mxCell>
                <mxCell id="01LKnUzwDYek3KCBofWs-3" value="+ readEvent(): void" style="text;strokeColor=none;fillColor=none;align=left;verticalAlign=top;spacingLeft=4;spacingRight=4;overflow=hidden;rotatable=0;points=[[0,0.5],[1,0.5]];portConstraint=eastwest;fontFamily=JetBrains Mono;fontSource=https%3A%2F%2Ffonts.googleapis.com%2Fcss%3Ffamily%3DJetBrains%2BMono;fontColor=#7F7F7F;" parent="wLigsZPMJS02Pw-tS1Bv-17" vertex="1">
                    <mxGeometry y="112" width="320" height="26" as="geometry"/>
                </mxCell>
                <mxCell id="01LKnUzwDYek3KCBofWs-4" value="+ writeEvent(): void" style="text;strokeColor=none;fillColor=none;align=left;verticalAlign=top;spacingLeft=4;spacingRight=4;overflow=hidden;rotatable=0;points=[[0,0.5],[1,0.5]];portConstraint=eastwest;fontFamily=JetBrains Mono;fontSource=https%3A%2F%2Ffonts.googleapis.com%2Fcss%3Ffamily%3DJetBrains%2BMono;fontColor=#7F7F7F;" parent="wLigsZPMJS02Pw-tS1Bv-17" vertex="1">
                    <mxGeometry y="138" width="320" height="26" as="geometry"/>
                </mxCell>
                <mxCell id="wLigsZPMJS02Pw-tS1Bv-62" style="edgeStyle=orthogonalEdgeStyle;rounded=0;orthogonalLoop=1;jettySize=auto;html=1;fontColor=#7F7F7F;startArrow=none;startFill=0;endArrow=diamondThin;endFill=1;" parent="1" source="wLigsZPMJS02Pw-tS1Bv-30" target="wLigsZPMJS02Pw-tS1Bv-35" edge="1">
                    <mxGeometry relative="1" as="geometry"/>
                </mxCell>
                <mxCell id="wLigsZPMJS02Pw-tS1Bv-30" value="Server" style="swimlane;fontStyle=1;align=center;verticalAlign=top;childLayout=stackLayout;horizontal=1;startSize=26;horizontalStack=0;resizeParent=1;resizeParentMax=0;resizeLast=0;collapsible=1;marginBottom=0;fontFamily=JetBrains Mono;fontSource=https%3A%2F%2Ffonts.googleapis.com%2Fcss%3Ffamily%3DJetBrains%2BMono;" parent="1" vertex="1">
                    <mxGeometry x="1280" y="282" width="440" height="294" as="geometry"/>
                </mxCell>
                <mxCell id="wLigsZPMJS02Pw-tS1Bv-31" value="- locations: map&lt;string, Location*&gt;" style="text;strokeColor=none;fillColor=none;align=left;verticalAlign=top;spacingLeft=4;spacingRight=4;overflow=hidden;rotatable=0;points=[[0,0.5],[1,0.5]];portConstraint=eastwest;fontFamily=JetBrains Mono;fontSource=https%3A%2F%2Ffonts.googleapis.com%2Fcss%3Ffamily%3DJetBrains%2BMono;" parent="wLigsZPMJS02Pw-tS1Bv-30" vertex="1">
                    <mxGeometry y="26" width="440" height="26" as="geometry"/>
                </mxCell>
                <mxCell id="wLigsZPMJS02Pw-tS1Bv-40" value="- error_pages: map&lt;int, std::string&gt;" style="text;strokeColor=none;fillColor=none;align=left;verticalAlign=top;spacingLeft=4;spacingRight=4;overflow=hidden;rotatable=0;points=[[0,0.5],[1,0.5]];portConstraint=eastwest;fontFamily=JetBrains Mono;fontSource=https%3A%2F%2Ffonts.googleapis.com%2Fcss%3Ffamily%3DJetBrains%2BMono;" parent="wLigsZPMJS02Pw-tS1Bv-30" vertex="1">
                    <mxGeometry y="52" width="440" height="26" as="geometry"/>
                </mxCell>
                <mxCell id="wLigsZPMJS02Pw-tS1Bv-46" value="- auto_index: bool" style="text;strokeColor=none;fillColor=none;align=left;verticalAlign=top;spacingLeft=4;spacingRight=4;overflow=hidden;rotatable=0;points=[[0,0.5],[1,0.5]];portConstraint=eastwest;fontFamily=JetBrains Mono;fontSource=https%3A%2F%2Ffonts.googleapis.com%2Fcss%3Ffamily%3DJetBrains%2BMono;" parent="wLigsZPMJS02Pw-tS1Bv-30" vertex="1">
                    <mxGeometry y="78" width="440" height="26" as="geometry"/>
                </mxCell>
                <mxCell id="wLigsZPMJS02Pw-tS1Bv-47" value="- body_limit: int" style="text;strokeColor=none;fillColor=none;align=left;verticalAlign=top;spacingLeft=4;spacingRight=4;overflow=hidden;rotatable=0;points=[[0,0.5],[1,0.5]];portConstraint=eastwest;fontFamily=JetBrains Mono;fontSource=https%3A%2F%2Ffonts.googleapis.com%2Fcss%3Ffamily%3DJetBrains%2BMono;" parent="wLigsZPMJS02Pw-tS1Bv-30" vertex="1">
                    <mxGeometry y="104" width="440" height="26" as="geometry"/>
                </mxCell>
                <mxCell id="wLigsZPMJS02Pw-tS1Bv-32" value="" style="line;strokeWidth=1;fillColor=none;align=left;verticalAlign=middle;spacingTop=-1;spacingLeft=3;spacingRight=3;rotatable=0;labelPosition=right;points=[];portConstraint=eastwest;fontFamily=JetBrains Mono;fontSource=https%3A%2F%2Ffonts.googleapis.com%2Fcss%3Ffamily%3DJetBrains%2BMono;" parent="wLigsZPMJS02Pw-tS1Bv-30" vertex="1">
                    <mxGeometry y="130" width="440" height="8" as="geometry"/>
                </mxCell>
                <mxCell id="wLigsZPMJS02Pw-tS1Bv-34" value="+ addLocation(path: string, loc: Location*): void" style="text;strokeColor=none;fillColor=none;align=left;verticalAlign=top;spacingLeft=4;spacingRight=4;overflow=hidden;rotatable=0;points=[[0,0.5],[1,0.5]];portConstraint=eastwest;fontFamily=JetBrains Mono;fontSource=https%3A%2F%2Ffonts.googleapis.com%2Fcss%3Ffamily%3DJetBrains%2BMono;" parent="wLigsZPMJS02Pw-tS1Bv-30" vertex="1">
                    <mxGeometry y="138" width="440" height="26" as="geometry"/>
                </mxCell>
                <mxCell id="wLigsZPMJS02Pw-tS1Bv-41" value="+ addErrorPage(error_code: int, page_path: string): void" style="text;strokeColor=none;fillColor=none;align=left;verticalAlign=top;spacingLeft=4;spacingRight=4;overflow=hidden;rotatable=0;points=[[0,0.5],[1,0.5]];portConstraint=eastwest;fontFamily=JetBrains Mono;fontSource=https%3A%2F%2Ffonts.googleapis.com%2Fcss%3Ffamily%3DJetBrains%2BMono;" parent="wLigsZPMJS02Pw-tS1Bv-30" vertex="1">
                    <mxGeometry y="164" width="440" height="26" as="geometry"/>
                </mxCell>
                <mxCell id="wLigsZPMJS02Pw-tS1Bv-42" value="+ setBodyLimit(bytes: int): void" style="text;strokeColor=none;fillColor=none;align=left;verticalAlign=top;spacingLeft=4;spacingRight=4;overflow=hidden;rotatable=0;points=[[0,0.5],[1,0.5]];portConstraint=eastwest;fontFamily=JetBrains Mono;fontSource=https%3A%2F%2Ffonts.googleapis.com%2Fcss%3Ffamily%3DJetBrains%2BMono;" parent="wLigsZPMJS02Pw-tS1Bv-30" vertex="1">
                    <mxGeometry y="190" width="440" height="26" as="geometry"/>
                </mxCell>
                <mxCell id="wLigsZPMJS02Pw-tS1Bv-43" value="+ setAutoindex(on_off_string: string): void" style="text;strokeColor=none;fillColor=none;align=left;verticalAlign=top;spacingLeft=4;spacingRight=4;overflow=hidden;rotatable=0;points=[[0,0.5],[1,0.5]];portConstraint=eastwest;fontFamily=JetBrains Mono;fontSource=https%3A%2F%2Ffonts.googleapis.com%2Fcss%3Ffamily%3DJetBrains%2BMono;" parent="wLigsZPMJS02Pw-tS1Bv-30" vertex="1">
                    <mxGeometry y="216" width="440" height="26" as="geometry"/>
                </mxCell>
                <mxCell id="wLigsZPMJS02Pw-tS1Bv-44" value="+ setReturnInfo(code: int, uri: string): void" style="text;strokeColor=none;fillColor=none;align=left;verticalAlign=top;spacingLeft=4;spacingRight=4;overflow=hidden;rotatable=0;points=[[0,0.5],[1,0.5]];portConstraint=eastwest;fontFamily=JetBrains Mono;fontSource=https%3A%2F%2Ffonts.googleapis.com%2Fcss%3Ffamily%3DJetBrains%2BMono;" parent="wLigsZPMJS02Pw-tS1Bv-30" vertex="1">
                    <mxGeometry y="242" width="440" height="26" as="geometry"/>
                </mxCell>
                <mxCell id="wLigsZPMJS02Pw-tS1Bv-45" value="+ makeResponse(req: Request): Response" style="text;strokeColor=none;fillColor=none;align=left;verticalAlign=top;spacingLeft=4;spacingRight=4;overflow=hidden;rotatable=0;points=[[0,0.5],[1,0.5]];portConstraint=eastwest;fontFamily=JetBrains Mono;fontSource=https%3A%2F%2Ffonts.googleapis.com%2Fcss%3Ffamily%3DJetBrains%2BMono;" parent="wLigsZPMJS02Pw-tS1Bv-30" vertex="1">
                    <mxGeometry y="268" width="440" height="26" as="geometry"/>
                </mxCell>
                <mxCell id="wLigsZPMJS02Pw-tS1Bv-35" value="Location" style="swimlane;fontStyle=1;align=center;verticalAlign=top;childLayout=stackLayout;horizontal=1;startSize=26;horizontalStack=0;resizeParent=1;resizeParentMax=0;resizeLast=0;collapsible=1;marginBottom=0;fontFamily=JetBrains Mono;fontSource=https%3A%2F%2Ffonts.googleapis.com%2Fcss%3Ffamily%3DJetBrains%2BMono;" parent="1" vertex="1">
                    <mxGeometry x="1800" y="217" width="440" height="424" as="geometry"/>
                </mxCell>
                <mxCell id="wLigsZPMJS02Pw-tS1Bv-36" value="- path: string" style="text;strokeColor=none;fillColor=none;align=left;verticalAlign=top;spacingLeft=4;spacingRight=4;overflow=hidden;rotatable=0;points=[[0,0.5],[1,0.5]];portConstraint=eastwest;fontFamily=JetBrains Mono;fontSource=https%3A%2F%2Ffonts.googleapis.com%2Fcss%3Ffamily%3DJetBrains%2BMono;" parent="wLigsZPMJS02Pw-tS1Bv-35" vertex="1">
                    <mxGeometry y="26" width="440" height="26" as="geometry"/>
                </mxCell>
                <mxCell id="wLigsZPMJS02Pw-tS1Bv-48" value="- root: string" style="text;strokeColor=none;fillColor=none;align=left;verticalAlign=top;spacingLeft=4;spacingRight=4;overflow=hidden;rotatable=0;points=[[0,0.5],[1,0.5]];portConstraint=eastwest;fontFamily=JetBrains Mono;fontSource=https%3A%2F%2Ffonts.googleapis.com%2Fcss%3Ffamily%3DJetBrains%2BMono;" parent="wLigsZPMJS02Pw-tS1Bv-35" vertex="1">
                    <mxGeometry y="52" width="440" height="26" as="geometry"/>
                </mxCell>
                <mxCell id="wLigsZPMJS02Pw-tS1Bv-49" value="- index: vector&lt;string&gt;" style="text;strokeColor=none;fillColor=none;align=left;verticalAlign=top;spacingLeft=4;spacingRight=4;overflow=hidden;rotatable=0;points=[[0,0.5],[1,0.5]];portConstraint=eastwest;fontFamily=JetBrains Mono;fontSource=https%3A%2F%2Ffonts.googleapis.com%2Fcss%3Ffamily%3DJetBrains%2BMono;" parent="wLigsZPMJS02Pw-tS1Bv-35" vertex="1">
                    <mxGeometry y="78" width="440" height="26" as="geometry"/>
                </mxCell>
                <mxCell id="wLigsZPMJS02Pw-tS1Bv-50" value="- cgi_info: map&lt;string, string&gt;" style="text;strokeColor=none;fillColor=none;align=left;verticalAlign=top;spacingLeft=4;spacingRight=4;overflow=hidden;rotatable=0;points=[[0,0.5],[1,0.5]];portConstraint=eastwest;fontFamily=JetBrains Mono;fontSource=https%3A%2F%2Ffonts.googleapis.com%2Fcss%3Ffamily%3DJetBrains%2BMono;" parent="wLigsZPMJS02Pw-tS1Bv-35" vertex="1">
                    <mxGeometry y="104" width="440" height="26" as="geometry"/>
                </mxCell>
                <mxCell id="wLigsZPMJS02Pw-tS1Bv-51" value="- error_pages: map&lt;int, string&gt;" style="text;strokeColor=none;fillColor=none;align=left;verticalAlign=top;spacingLeft=4;spacingRight=4;overflow=hidden;rotatable=0;points=[[0,0.5],[1,0.5]];portConstraint=eastwest;fontFamily=JetBrains Mono;fontSource=https%3A%2F%2Ffonts.googleapis.com%2Fcss%3Ffamily%3DJetBrains%2BMono;" parent="wLigsZPMJS02Pw-tS1Bv-35" vertex="1">
                    <mxGeometry y="130" width="440" height="26" as="geometry"/>
                </mxCell>
                <mxCell id="wLigsZPMJS02Pw-tS1Bv-52" value="- allowed_methods: set&lt;Request::Method&gt;" style="text;strokeColor=none;fillColor=none;align=left;verticalAlign=top;spacingLeft=4;spacingRight=4;overflow=hidden;rotatable=0;points=[[0,0.5],[1,0.5]];portConstraint=eastwest;fontFamily=JetBrains Mono;fontSource=https%3A%2F%2Ffonts.googleapis.com%2Fcss%3Ffamily%3DJetBrains%2BMono;" parent="wLigsZPMJS02Pw-tS1Bv-35" vertex="1">
                    <mxGeometry y="156" width="440" height="26" as="geometry"/>
                </mxCell>
                <mxCell id="wLigsZPMJS02Pw-tS1Bv-53" value="- return_info: pair&lt;int, std::string&gt;" style="text;strokeColor=none;fillColor=none;align=left;verticalAlign=top;spacingLeft=4;spacingRight=4;overflow=hidden;rotatable=0;points=[[0,0.5],[1,0.5]];portConstraint=eastwest;fontFamily=JetBrains Mono;fontSource=https%3A%2F%2Ffonts.googleapis.com%2Fcss%3Ffamily%3DJetBrains%2BMono;" parent="wLigsZPMJS02Pw-tS1Bv-35" vertex="1">
                    <mxGeometry y="182" width="440" height="26" as="geometry"/>
                </mxCell>
                <mxCell id="wLigsZPMJS02Pw-tS1Bv-54" value="- auto_index: bool" style="text;strokeColor=none;fillColor=none;align=left;verticalAlign=top;spacingLeft=4;spacingRight=4;overflow=hidden;rotatable=0;points=[[0,0.5],[1,0.5]];portConstraint=eastwest;fontFamily=JetBrains Mono;fontSource=https%3A%2F%2Ffonts.googleapis.com%2Fcss%3Ffamily%3DJetBrains%2BMono;" parent="wLigsZPMJS02Pw-tS1Bv-35" vertex="1">
                    <mxGeometry y="208" width="440" height="26" as="geometry"/>
                </mxCell>
                <mxCell id="wLigsZPMJS02Pw-tS1Bv-37" value="" style="line;strokeWidth=1;fillColor=none;align=left;verticalAlign=middle;spacingTop=-1;spacingLeft=3;spacingRight=3;rotatable=0;labelPosition=right;points=[];portConstraint=eastwest;fontFamily=JetBrains Mono;fontSource=https%3A%2F%2Ffonts.googleapis.com%2Fcss%3Ffamily%3DJetBrains%2BMono;" parent="wLigsZPMJS02Pw-tS1Bv-35" vertex="1">
                    <mxGeometry y="234" width="440" height="8" as="geometry"/>
                </mxCell>
                <mxCell id="wLigsZPMJS02Pw-tS1Bv-39" value="+ setRoot(root_path: string): void" style="text;strokeColor=none;fillColor=none;align=left;verticalAlign=top;spacingLeft=4;spacingRight=4;overflow=hidden;rotatable=0;points=[[0,0.5],[1,0.5]];portConstraint=eastwest;fontFamily=JetBrains Mono;fontSource=https%3A%2F%2Ffonts.googleapis.com%2Fcss%3Ffamily%3DJetBrains%2BMono;" parent="wLigsZPMJS02Pw-tS1Bv-35" vertex="1">
                    <mxGeometry y="242" width="440" height="26" as="geometry"/>
                </mxCell>
                <mxCell id="wLigsZPMJS02Pw-tS1Bv-55" value="+ setAutoindex(on_off_string: string): void" style="text;strokeColor=none;fillColor=none;align=left;verticalAlign=top;spacingLeft=4;spacingRight=4;overflow=hidden;rotatable=0;points=[[0,0.5],[1,0.5]];portConstraint=eastwest;fontFamily=JetBrains Mono;fontSource=https%3A%2F%2Ffonts.googleapis.com%2Fcss%3Ffamily%3DJetBrains%2BMono;" parent="wLigsZPMJS02Pw-tS1Bv-35" vertex="1">
                    <mxGeometry y="268" width="440" height="26" as="geometry"/>
                </mxCell>
                <mxCell id="wLigsZPMJS02Pw-tS1Bv-56" value="+ setReturnInfo(code: int, uri: string): void" style="text;strokeColor=none;fillColor=none;align=left;verticalAlign=top;spacingLeft=4;spacingRight=4;overflow=hidden;rotatable=0;points=[[0,0.5],[1,0.5]];portConstraint=eastwest;fontFamily=JetBrains Mono;fontSource=https%3A%2F%2Ffonts.googleapis.com%2Fcss%3Ffamily%3DJetBrains%2BMono;" parent="wLigsZPMJS02Pw-tS1Bv-35" vertex="1">
                    <mxGeometry y="294" width="440" height="26" as="geometry"/>
                </mxCell>
                <mxCell id="wLigsZPMJS02Pw-tS1Bv-57" value="+ setErrorPage(error_code: int, page_path: string): void" style="text;strokeColor=none;fillColor=none;align=left;verticalAlign=top;spacingLeft=4;spacingRight=4;overflow=hidden;rotatable=0;points=[[0,0.5],[1,0.5]];portConstraint=eastwest;fontFamily=JetBrains Mono;fontSource=https%3A%2F%2Ffonts.googleapis.com%2Fcss%3Ffamily%3DJetBrains%2BMono;" parent="wLigsZPMJS02Pw-tS1Bv-35" vertex="1">
                    <mxGeometry y="320" width="440" height="26" as="geometry"/>
                </mxCell>
                <mxCell id="wLigsZPMJS02Pw-tS1Bv-58" value="+ setCGI(extension: string, exe_path: string): void" style="text;strokeColor=none;fillColor=none;align=left;verticalAlign=top;spacingLeft=4;spacingRight=4;overflow=hidden;rotatable=0;points=[[0,0.5],[1,0.5]];portConstraint=eastwest;fontFamily=JetBrains Mono;fontSource=https%3A%2F%2Ffonts.googleapis.com%2Fcss%3Ffamily%3DJetBrains%2BMono;" parent="wLigsZPMJS02Pw-tS1Bv-35" vertex="1">
                    <mxGeometry y="346" width="440" height="26" as="geometry"/>
                </mxCell>
                <mxCell id="wLigsZPMJS02Pw-tS1Bv-59" value="+ addIndex(path: string): void" style="text;strokeColor=none;fillColor=none;align=left;verticalAlign=top;spacingLeft=4;spacingRight=4;overflow=hidden;rotatable=0;points=[[0,0.5],[1,0.5]];portConstraint=eastwest;fontFamily=JetBrains Mono;fontSource=https%3A%2F%2Ffonts.googleapis.com%2Fcss%3Ffamily%3DJetBrains%2BMono;" parent="wLigsZPMJS02Pw-tS1Bv-35" vertex="1">
                    <mxGeometry y="372" width="440" height="26" as="geometry"/>
                </mxCell>
                <mxCell id="wLigsZPMJS02Pw-tS1Bv-60" value="+ addMethod(method: string): void" style="text;strokeColor=none;fillColor=none;align=left;verticalAlign=top;spacingLeft=4;spacingRight=4;overflow=hidden;rotatable=0;points=[[0,0.5],[1,0.5]];portConstraint=eastwest;fontFamily=JetBrains Mono;fontSource=https%3A%2F%2Ffonts.googleapis.com%2Fcss%3Ffamily%3DJetBrains%2BMono;" parent="wLigsZPMJS02Pw-tS1Bv-35" vertex="1">
                    <mxGeometry y="398" width="440" height="26" as="geometry"/>
                </mxCell>
                <mxCell id="wLigsZPMJS02Pw-tS1Bv-64" value="&amp;lt;&amp;lt;enumeration&amp;gt;&amp;gt;&lt;br&gt;&lt;b&gt;Request::Method&lt;/b&gt;" style="swimlane;fontStyle=0;align=center;verticalAlign=top;childLayout=stackLayout;horizontal=1;startSize=40;horizontalStack=0;resizeParent=1;resizeParentMax=0;resizeLast=0;collapsible=0;marginBottom=0;html=1;fontFamily=JetBrains Mono;fontSource=https%3A%2F%2Ffonts.googleapis.com%2Fcss%3Ffamily%3DJetBrains%2BMono;" parent="1" vertex="1">
                    <mxGeometry x="2460" y="511" width="140" height="130" as="geometry"/>
                </mxCell>
                <mxCell id="wLigsZPMJS02Pw-tS1Bv-65" value="GET" style="text;html=1;strokeColor=none;fillColor=none;align=left;verticalAlign=middle;spacingLeft=4;spacingRight=4;overflow=hidden;rotatable=0;points=[[0,0.5],[1,0.5]];portConstraint=eastwest;fontFamily=JetBrains Mono;fontSource=https%3A%2F%2Ffonts.googleapis.com%2Fcss%3Ffamily%3DJetBrains%2BMono;" parent="wLigsZPMJS02Pw-tS1Bv-64" vertex="1">
                    <mxGeometry y="40" width="140" height="30" as="geometry"/>
                </mxCell>
                <mxCell id="wLigsZPMJS02Pw-tS1Bv-66" value="POST" style="text;html=1;strokeColor=none;fillColor=none;align=left;verticalAlign=middle;spacingLeft=4;spacingRight=4;overflow=hidden;rotatable=0;points=[[0,0.5],[1,0.5]];portConstraint=eastwest;fontFamily=JetBrains Mono;fontSource=https%3A%2F%2Ffonts.googleapis.com%2Fcss%3Ffamily%3DJetBrains%2BMono;" parent="wLigsZPMJS02Pw-tS1Bv-64" vertex="1">
                    <mxGeometry y="70" width="140" height="30" as="geometry"/>
                </mxCell>
                <mxCell id="wLigsZPMJS02Pw-tS1Bv-67" value="DELETE" style="text;html=1;strokeColor=none;fillColor=none;align=left;verticalAlign=middle;spacingLeft=4;spacingRight=4;overflow=hidden;rotatable=0;points=[[0,0.5],[1,0.5]];portConstraint=eastwest;fontFamily=JetBrains Mono;fontSource=https%3A%2F%2Ffonts.googleapis.com%2Fcss%3Ffamily%3DJetBrains%2BMono;" parent="wLigsZPMJS02Pw-tS1Bv-64" vertex="1">
                    <mxGeometry y="100" width="140" height="30" as="geometry"/>
                </mxCell>
                <mxCell id="wLigsZPMJS02Pw-tS1Bv-68" value="Request" style="swimlane;fontStyle=1;align=center;verticalAlign=top;childLayout=stackLayout;horizontal=1;startSize=26;horizontalStack=0;resizeParent=1;resizeParentMax=0;resizeLast=0;collapsible=1;marginBottom=0;fontFamily=JetBrains Mono;fontSource=https%3A%2F%2Ffonts.googleapis.com%2Fcss%3Ffamily%3DJetBrains%2BMono;" parent="1" vertex="1">
                    <mxGeometry x="1280" y="878" width="360" height="320" as="geometry"/>
                </mxCell>
                <mxCell id="wLigsZPMJS02Pw-tS1Bv-69" value="- method: Method" style="text;strokeColor=none;fillColor=none;align=left;verticalAlign=top;spacingLeft=4;spacingRight=4;overflow=hidden;rotatable=0;points=[[0,0.5],[1,0.5]];portConstraint=eastwest;fontFamily=JetBrains Mono;fontSource=https%3A%2F%2Ffonts.googleapis.com%2Fcss%3Ffamily%3DJetBrains%2BMono;" parent="wLigsZPMJS02Pw-tS1Bv-68" vertex="1">
                    <mxGeometry y="26" width="360" height="26" as="geometry"/>
                </mxCell>
                <mxCell id="wLigsZPMJS02Pw-tS1Bv-70" value="- uri: string" style="text;strokeColor=none;fillColor=none;align=left;verticalAlign=top;spacingLeft=4;spacingRight=4;overflow=hidden;rotatable=0;points=[[0,0.5],[1,0.5]];portConstraint=eastwest;fontFamily=JetBrains Mono;fontSource=https%3A%2F%2Ffonts.googleapis.com%2Fcss%3Ffamily%3DJetBrains%2BMono;" parent="wLigsZPMJS02Pw-tS1Bv-68" vertex="1">
                    <mxGeometry y="52" width="360" height="26" as="geometry"/>
                </mxCell>
                <mxCell id="wLigsZPMJS02Pw-tS1Bv-71" value="- http_version: string" style="text;strokeColor=none;fillColor=none;align=left;verticalAlign=top;spacingLeft=4;spacingRight=4;overflow=hidden;rotatable=0;points=[[0,0.5],[1,0.5]];portConstraint=eastwest;fontFamily=JetBrains Mono;fontSource=https%3A%2F%2Ffonts.googleapis.com%2Fcss%3Ffamily%3DJetBrains%2BMono;" parent="wLigsZPMJS02Pw-tS1Bv-68" vertex="1">
                    <mxGeometry y="78" width="360" height="26" as="geometry"/>
                </mxCell>
                <mxCell id="wLigsZPMJS02Pw-tS1Bv-88" value="- headers: map&lt;string, string&gt;" style="text;strokeColor=none;fillColor=none;align=left;verticalAlign=top;spacingLeft=4;spacingRight=4;overflow=hidden;rotatable=0;points=[[0,0.5],[1,0.5]];portConstraint=eastwest;fontFamily=JetBrains Mono;fontSource=https%3A%2F%2Ffonts.googleapis.com%2Fcss%3Ffamily%3DJetBrains%2BMono;" parent="wLigsZPMJS02Pw-tS1Bv-68" vertex="1">
                    <mxGeometry y="104" width="360" height="26" as="geometry"/>
                </mxCell>
                <mxCell id="wLigsZPMJS02Pw-tS1Bv-89" value="- body: vector&lt;string&gt;" style="text;strokeColor=none;fillColor=none;align=left;verticalAlign=top;spacingLeft=4;spacingRight=4;overflow=hidden;rotatable=0;points=[[0,0.5],[1,0.5]];portConstraint=eastwest;fontFamily=JetBrains Mono;fontSource=https%3A%2F%2Ffonts.googleapis.com%2Fcss%3Ffamily%3DJetBrains%2BMono;" parent="wLigsZPMJS02Pw-tS1Bv-68" vertex="1">
                    <mxGeometry y="130" width="360" height="26" as="geometry"/>
                </mxCell>
                <mxCell id="wLigsZPMJS02Pw-tS1Bv-72" value="" style="line;strokeWidth=1;fillColor=none;align=left;verticalAlign=middle;spacingTop=-1;spacingLeft=3;spacingRight=3;rotatable=0;labelPosition=right;points=[];portConstraint=eastwest;fontFamily=JetBrains Mono;fontSource=https%3A%2F%2Ffonts.googleapis.com%2Fcss%3Ffamily%3DJetBrains%2BMono;" parent="wLigsZPMJS02Pw-tS1Bv-68" vertex="1">
                    <mxGeometry y="156" width="360" height="8" as="geometry"/>
                </mxCell>
                <mxCell id="wLigsZPMJS02Pw-tS1Bv-73" value="+ Request()" style="text;strokeColor=none;fillColor=none;align=left;verticalAlign=top;spacingLeft=4;spacingRight=4;overflow=hidden;rotatable=0;points=[[0,0.5],[1,0.5]];portConstraint=eastwest;fontFamily=JetBrains Mono;fontSource=https%3A%2F%2Ffonts.googleapis.com%2Fcss%3Ffamily%3DJetBrains%2BMono;" parent="wLigsZPMJS02Pw-tS1Bv-68" vertex="1">
                    <mxGeometry y="164" width="360" height="26" as="geometry"/>
                </mxCell>
                <mxCell id="wLigsZPMJS02Pw-tS1Bv-74" value="+ setMethod(method: Method): void" style="text;strokeColor=none;fillColor=none;align=left;verticalAlign=top;spacingLeft=4;spacingRight=4;overflow=hidden;rotatable=0;points=[[0,0.5],[1,0.5]];portConstraint=eastwest;fontFamily=JetBrains Mono;fontSource=https%3A%2F%2Ffonts.googleapis.com%2Fcss%3Ffamily%3DJetBrains%2BMono;" parent="wLigsZPMJS02Pw-tS1Bv-68" vertex="1">
                    <mxGeometry y="190" width="360" height="26" as="geometry"/>
                </mxCell>
                <mxCell id="wLigsZPMJS02Pw-tS1Bv-90" value="+ setURI(uri: string): void" style="text;strokeColor=none;fillColor=none;align=left;verticalAlign=top;spacingLeft=4;spacingRight=4;overflow=hidden;rotatable=0;points=[[0,0.5],[1,0.5]];portConstraint=eastwest;fontFamily=JetBrains Mono;fontSource=https%3A%2F%2Ffonts.googleapis.com%2Fcss%3Ffamily%3DJetBrains%2BMono;" parent="wLigsZPMJS02Pw-tS1Bv-68" vertex="1">
                    <mxGeometry y="216" width="360" height="26" as="geometry"/>
                </mxCell>
                <mxCell id="wLigsZPMJS02Pw-tS1Bv-91" value="+ setHTTPVersion(version: string): void" style="text;strokeColor=none;fillColor=none;align=left;verticalAlign=top;spacingLeft=4;spacingRight=4;overflow=hidden;rotatable=0;points=[[0,0.5],[1,0.5]];portConstraint=eastwest;fontFamily=JetBrains Mono;fontSource=https%3A%2F%2Ffonts.googleapis.com%2Fcss%3Ffamily%3DJetBrains%2BMono;" parent="wLigsZPMJS02Pw-tS1Bv-68" vertex="1">
                    <mxGeometry y="242" width="360" height="26" as="geometry"/>
                </mxCell>
                <mxCell id="wLigsZPMJS02Pw-tS1Bv-92" value="+ addHeader(key: string, value: string): void" style="text;strokeColor=none;fillColor=none;align=left;verticalAlign=top;spacingLeft=4;spacingRight=4;overflow=hidden;rotatable=0;points=[[0,0.5],[1,0.5]];portConstraint=eastwest;fontFamily=JetBrains Mono;fontSource=https%3A%2F%2Ffonts.googleapis.com%2Fcss%3Ffamily%3DJetBrains%2BMono;" parent="wLigsZPMJS02Pw-tS1Bv-68" vertex="1">
                    <mxGeometry y="268" width="360" height="26" as="geometry"/>
                </mxCell>
                <mxCell id="wLigsZPMJS02Pw-tS1Bv-93" value="+ addBody(body: string): void" style="text;strokeColor=none;fillColor=none;align=left;verticalAlign=top;spacingLeft=4;spacingRight=4;overflow=hidden;rotatable=0;points=[[0,0.5],[1,0.5]];portConstraint=eastwest;fontFamily=JetBrains Mono;fontSource=https%3A%2F%2Ffonts.googleapis.com%2Fcss%3Ffamily%3DJetBrains%2BMono;" parent="wLigsZPMJS02Pw-tS1Bv-68" vertex="1">
                    <mxGeometry y="294" width="360" height="26" as="geometry"/>
                </mxCell>
                <mxCell id="01LKnUzwDYek3KCBofWs-12" style="edgeStyle=orthogonalEdgeStyle;rounded=0;orthogonalLoop=1;jettySize=auto;html=1;startArrow=none;startFill=0;endArrow=diamondThin;endFill=1;" parent="1" source="wLigsZPMJS02Pw-tS1Bv-76" target="iFJsFlJdxSo0Ghs3sPFQ-17" edge="1">
                    <mxGeometry relative="1" as="geometry"/>
                </mxCell>
                <mxCell id="wLigsZPMJS02Pw-tS1Bv-76" value="Response" style="swimlane;fontStyle=1;align=center;verticalAlign=top;childLayout=stackLayout;horizontal=1;startSize=26;horizontalStack=0;resizeParent=1;resizeParentMax=0;resizeLast=0;collapsible=1;marginBottom=0;fontFamily=JetBrains Mono;fontSource=https%3A%2F%2Ffonts.googleapis.com%2Fcss%3Ffamily%3DJetBrains%2BMono;" parent="1" vertex="1">
                    <mxGeometry x="1280" y="1252" width="360" height="320" as="geometry"/>
                </mxCell>
                <mxCell id="wLigsZPMJS02Pw-tS1Bv-77" value="- http_version: string" style="text;strokeColor=none;fillColor=none;align=left;verticalAlign=top;spacingLeft=4;spacingRight=4;overflow=hidden;rotatable=0;points=[[0,0.5],[1,0.5]];portConstraint=eastwest;fontFamily=JetBrains Mono;fontSource=https%3A%2F%2Ffonts.googleapis.com%2Fcss%3Ffamily%3DJetBrains%2BMono;" parent="wLigsZPMJS02Pw-tS1Bv-76" vertex="1">
                    <mxGeometry y="26" width="360" height="26" as="geometry"/>
                </mxCell>
                <mxCell id="wLigsZPMJS02Pw-tS1Bv-78" value="- status_code: int" style="text;strokeColor=none;fillColor=none;align=left;verticalAlign=top;spacingLeft=4;spacingRight=4;overflow=hidden;rotatable=0;points=[[0,0.5],[1,0.5]];portConstraint=eastwest;fontFamily=JetBrains Mono;fontSource=https%3A%2F%2Ffonts.googleapis.com%2Fcss%3Ffamily%3DJetBrains%2BMono;" parent="wLigsZPMJS02Pw-tS1Bv-76" vertex="1">
                    <mxGeometry y="52" width="360" height="26" as="geometry"/>
                </mxCell>
                <mxCell id="wLigsZPMJS02Pw-tS1Bv-79" value="- header: map&lt;string, string&gt;" style="text;strokeColor=none;fillColor=none;align=left;verticalAlign=top;spacingLeft=4;spacingRight=4;overflow=hidden;rotatable=0;points=[[0,0.5],[1,0.5]];portConstraint=eastwest;fontFamily=JetBrains Mono;fontSource=https%3A%2F%2Ffonts.googleapis.com%2Fcss%3Ffamily%3DJetBrains%2BMono;" parent="wLigsZPMJS02Pw-tS1Bv-76" vertex="1">
                    <mxGeometry y="78" width="360" height="26" as="geometry"/>
                </mxCell>
                <mxCell id="wLigsZPMJS02Pw-tS1Bv-94" value="- body: queue&lt;string&gt;" style="text;strokeColor=none;fillColor=none;align=left;verticalAlign=top;spacingLeft=4;spacingRight=4;overflow=hidden;rotatable=0;points=[[0,0.5],[1,0.5]];portConstraint=eastwest;fontFamily=JetBrains Mono;fontSource=https%3A%2F%2Ffonts.googleapis.com%2Fcss%3Ffamily%3DJetBrains%2BMono;" parent="wLigsZPMJS02Pw-tS1Bv-76" vertex="1">
                    <mxGeometry y="104" width="360" height="26" as="geometry"/>
                </mxCell>
                <mxCell id="wLigsZPMJS02Pw-tS1Bv-95" value="- resource: Resource*" style="text;strokeColor=none;fillColor=none;align=left;verticalAlign=top;spacingLeft=4;spacingRight=4;overflow=hidden;rotatable=0;points=[[0,0.5],[1,0.5]];portConstraint=eastwest;fontFamily=JetBrains Mono;fontSource=https%3A%2F%2Ffonts.googleapis.com%2Fcss%3Ffamily%3DJetBrains%2BMono;" parent="wLigsZPMJS02Pw-tS1Bv-76" vertex="1">
                    <mxGeometry y="130" width="360" height="26" as="geometry"/>
                </mxCell>
                <mxCell id="wLigsZPMJS02Pw-tS1Bv-80" value="" style="line;strokeWidth=1;fillColor=none;align=left;verticalAlign=middle;spacingTop=-1;spacingLeft=3;spacingRight=3;rotatable=0;labelPosition=right;points=[];portConstraint=eastwest;fontFamily=JetBrains Mono;fontSource=https%3A%2F%2Ffonts.googleapis.com%2Fcss%3Ffamily%3DJetBrains%2BMono;" parent="wLigsZPMJS02Pw-tS1Bv-76" vertex="1">
                    <mxGeometry y="156" width="360" height="8" as="geometry"/>
                </mxCell>
                <mxCell id="wLigsZPMJS02Pw-tS1Bv-81" value="+ Response()" style="text;strokeColor=none;fillColor=none;align=left;verticalAlign=top;spacingLeft=4;spacingRight=4;overflow=hidden;rotatable=0;points=[[0,0.5],[1,0.5]];portConstraint=eastwest;fontFamily=JetBrains Mono;fontSource=https%3A%2F%2Ffonts.googleapis.com%2Fcss%3Ffamily%3DJetBrains%2BMono;" parent="wLigsZPMJS02Pw-tS1Bv-76" vertex="1">
                    <mxGeometry y="164" width="360" height="26" as="geometry"/>
                </mxCell>
                <mxCell id="wLigsZPMJS02Pw-tS1Bv-98" value="+ setResource(resource: Resource): void" style="text;strokeColor=none;fillColor=none;align=left;verticalAlign=top;spacingLeft=4;spacingRight=4;overflow=hidden;rotatable=0;points=[[0,0.5],[1,0.5]];portConstraint=eastwest;fontFamily=JetBrains Mono;fontSource=https%3A%2F%2Ffonts.googleapis.com%2Fcss%3Ffamily%3DJetBrains%2BMono;" parent="wLigsZPMJS02Pw-tS1Bv-76" vertex="1">
                    <mxGeometry y="190" width="360" height="26" as="geometry"/>
                </mxCell>
                <mxCell id="wLigsZPMJS02Pw-tS1Bv-82" value="+ setHTTPVersion(version: string): void" style="text;strokeColor=none;fillColor=none;align=left;verticalAlign=top;spacingLeft=4;spacingRight=4;overflow=hidden;rotatable=0;points=[[0,0.5],[1,0.5]];portConstraint=eastwest;fontFamily=JetBrains Mono;fontSource=https%3A%2F%2Ffonts.googleapis.com%2Fcss%3Ffamily%3DJetBrains%2BMono;" parent="wLigsZPMJS02Pw-tS1Bv-76" vertex="1">
                    <mxGeometry y="216" width="360" height="26" as="geometry"/>
                </mxCell>
                <mxCell id="wLigsZPMJS02Pw-tS1Bv-83" value="+ setStatusCode(code: int): void" style="text;strokeColor=none;fillColor=none;align=left;verticalAlign=top;spacingLeft=4;spacingRight=4;overflow=hidden;rotatable=0;points=[[0,0.5],[1,0.5]];portConstraint=eastwest;fontFamily=JetBrains Mono;fontSource=https%3A%2F%2Ffonts.googleapis.com%2Fcss%3Ffamily%3DJetBrains%2BMono;" parent="wLigsZPMJS02Pw-tS1Bv-76" vertex="1">
                    <mxGeometry y="242" width="360" height="26" as="geometry"/>
                </mxCell>
                <mxCell id="wLigsZPMJS02Pw-tS1Bv-96" value="+ addHeader(key: string, value: string): void" style="text;strokeColor=none;fillColor=none;align=left;verticalAlign=top;spacingLeft=4;spacingRight=4;overflow=hidden;rotatable=0;points=[[0,0.5],[1,0.5]];portConstraint=eastwest;fontFamily=JetBrains Mono;fontSource=https%3A%2F%2Ffonts.googleapis.com%2Fcss%3Ffamily%3DJetBrains%2BMono;" parent="wLigsZPMJS02Pw-tS1Bv-76" vertex="1">
                    <mxGeometry y="268" width="360" height="26" as="geometry"/>
                </mxCell>
                <mxCell id="wLigsZPMJS02Pw-tS1Bv-97" value="+ addBody(body: string): void" style="text;strokeColor=none;fillColor=none;align=left;verticalAlign=top;spacingLeft=4;spacingRight=4;overflow=hidden;rotatable=0;points=[[0,0.5],[1,0.5]];portConstraint=eastwest;fontFamily=JetBrains Mono;fontSource=https%3A%2F%2Ffonts.googleapis.com%2Fcss%3Ffamily%3DJetBrains%2BMono;" parent="wLigsZPMJS02Pw-tS1Bv-76" vertex="1">
                    <mxGeometry y="294" width="360" height="26" as="geometry"/>
                </mxCell>
                <mxCell id="wLigsZPMJS02Pw-tS1Bv-84" value="&amp;lt;&amp;lt;enumeration&amp;gt;&amp;gt;&lt;br&gt;&lt;b&gt;Dialogue::Status&lt;/b&gt;" style="swimlane;fontStyle=0;align=center;verticalAlign=top;childLayout=stackLayout;horizontal=1;startSize=40;horizontalStack=0;resizeParent=1;resizeParentMax=0;resizeLast=0;collapsible=0;marginBottom=0;html=1;fontFamily=JetBrains Mono;fontSource=https%3A%2F%2Ffonts.googleapis.com%2Fcss%3Ffamily%3DJetBrains%2BMono;" parent="1" vertex="1">
                    <mxGeometry x="740" y="1120" width="140" height="130" as="geometry"/>
                </mxCell>
                <mxCell id="wLigsZPMJS02Pw-tS1Bv-85" value="ReadingRequest" style="text;html=1;strokeColor=none;fillColor=none;align=left;verticalAlign=middle;spacingLeft=4;spacingRight=4;overflow=hidden;rotatable=0;points=[[0,0.5],[1,0.5]];portConstraint=eastwest;fontFamily=JetBrains Mono;fontSource=https%3A%2F%2Ffonts.googleapis.com%2Fcss%3Ffamily%3DJetBrains%2BMono;" parent="wLigsZPMJS02Pw-tS1Bv-84" vertex="1">
                    <mxGeometry y="40" width="140" height="30" as="geometry"/>
                </mxCell>
                <mxCell id="wLigsZPMJS02Pw-tS1Bv-86" value="Processing" style="text;html=1;strokeColor=none;fillColor=none;align=left;verticalAlign=middle;spacingLeft=4;spacingRight=4;overflow=hidden;rotatable=0;points=[[0,0.5],[1,0.5]];portConstraint=eastwest;fontFamily=JetBrains Mono;fontSource=https%3A%2F%2Ffonts.googleapis.com%2Fcss%3Ffamily%3DJetBrains%2BMono;" parent="wLigsZPMJS02Pw-tS1Bv-84" vertex="1">
                    <mxGeometry y="70" width="140" height="30" as="geometry"/>
                </mxCell>
                <mxCell id="wLigsZPMJS02Pw-tS1Bv-87" value="WritingResponse" style="text;html=1;strokeColor=none;fillColor=none;align=left;verticalAlign=middle;spacingLeft=4;spacingRight=4;overflow=hidden;rotatable=0;points=[[0,0.5],[1,0.5]];portConstraint=eastwest;fontFamily=JetBrains Mono;fontSource=https%3A%2F%2Ffonts.googleapis.com%2Fcss%3Ffamily%3DJetBrains%2BMono;" parent="wLigsZPMJS02Pw-tS1Bv-84" vertex="1">
                    <mxGeometry y="100" width="140" height="30" as="geometry"/>
                </mxCell>
                <mxCell id="01LKnUzwDYek3KCBofWs-10" style="edgeStyle=orthogonalEdgeStyle;rounded=0;orthogonalLoop=1;jettySize=auto;html=1;startArrow=none;startFill=0;endArrow=diamondThin;endFill=1;" parent="1" source="iFJsFlJdxSo0Ghs3sPFQ-53" target="wLigsZPMJS02Pw-tS1Bv-68" edge="1">
                    <mxGeometry relative="1" as="geometry">
                        <Array as="points">
                            <mxPoint x="1260" y="1185"/>
                            <mxPoint x="1260" y="1038"/>
                        </Array>
                    </mxGeometry>
                </mxCell>
                <mxCell id="01LKnUzwDYek3KCBofWs-11" style="edgeStyle=orthogonalEdgeStyle;rounded=0;orthogonalLoop=1;jettySize=auto;html=1;startArrow=none;startFill=0;endArrow=diamondThin;endFill=1;" parent="1" source="iFJsFlJdxSo0Ghs3sPFQ-53" target="wLigsZPMJS02Pw-tS1Bv-76" edge="1">
                    <mxGeometry relative="1" as="geometry">
                        <Array as="points">
                            <mxPoint x="1260" y="1185"/>
                            <mxPoint x="1260" y="1320"/>
                        </Array>
                    </mxGeometry>
                </mxCell>
                <mxCell id="01LKnUzwDYek3KCBofWs-13" value="CGIWriter" style="swimlane;fontStyle=1;align=center;verticalAlign=top;childLayout=stackLayout;horizontal=1;startSize=26;horizontalStack=0;resizeParent=1;resizeParentMax=0;resizeLast=0;collapsible=1;marginBottom=0;fontFamily=JetBrains Mono;fontSource=https%3A%2F%2Ffonts.googleapis.com%2Fcss%3Ffamily%3DJetBrains%2BMono;" parent="1" vertex="1">
                    <mxGeometry x="1001" y="1828" width="320" height="164" as="geometry"/>
                </mxCell>
                <mxCell id="01LKnUzwDYek3KCBofWs-22" value="- req: Request*" style="text;strokeColor=none;fillColor=none;align=left;verticalAlign=top;spacingLeft=4;spacingRight=4;overflow=hidden;rotatable=0;points=[[0,0.5],[1,0.5]];portConstraint=eastwest;fontFamily=JetBrains Mono;fontSource=https%3A%2F%2Ffonts.googleapis.com%2Fcss%3Ffamily%3DJetBrains%2BMono;" parent="01LKnUzwDYek3KCBofWs-13" vertex="1">
                    <mxGeometry y="26" width="320" height="26" as="geometry"/>
                </mxCell>
                <mxCell id="01LKnUzwDYek3KCBofWs-16" value="- fd: int" style="text;strokeColor=none;fillColor=none;align=left;verticalAlign=top;spacingLeft=4;spacingRight=4;overflow=hidden;rotatable=0;points=[[0,0.5],[1,0.5]];portConstraint=eastwest;fontFamily=JetBrains Mono;fontSource=https%3A%2F%2Ffonts.googleapis.com%2Fcss%3Ffamily%3DJetBrains%2BMono;fontColor=#7F7F7F;" parent="01LKnUzwDYek3KCBofWs-13" vertex="1">
                    <mxGeometry y="52" width="320" height="26" as="geometry"/>
                </mxCell>
                <mxCell id="01LKnUzwDYek3KCBofWs-17" value="" style="line;strokeWidth=1;fillColor=none;align=left;verticalAlign=middle;spacingTop=-1;spacingLeft=3;spacingRight=3;rotatable=0;labelPosition=right;points=[];portConstraint=eastwest;fontFamily=JetBrains Mono;fontSource=https%3A%2F%2Ffonts.googleapis.com%2Fcss%3Ffamily%3DJetBrains%2BMono;" parent="01LKnUzwDYek3KCBofWs-13" vertex="1">
                    <mxGeometry y="78" width="320" height="8" as="geometry"/>
                </mxCell>
                <mxCell id="01LKnUzwDYek3KCBofWs-18" value="+ CGIWriter(): void" style="text;strokeColor=none;fillColor=none;align=left;verticalAlign=top;spacingLeft=4;spacingRight=4;overflow=hidden;rotatable=0;points=[[0,0.5],[1,0.5]];portConstraint=eastwest;fontFamily=JetBrains Mono;fontSource=https%3A%2F%2Ffonts.googleapis.com%2Fcss%3Ffamily%3DJetBrains%2BMono;" parent="01LKnUzwDYek3KCBofWs-13" vertex="1">
                    <mxGeometry y="86" width="320" height="26" as="geometry"/>
                </mxCell>
                <mxCell id="01LKnUzwDYek3KCBofWs-19" value="+ readEvent(): void" style="text;strokeColor=none;fillColor=none;align=left;verticalAlign=top;spacingLeft=4;spacingRight=4;overflow=hidden;rotatable=0;points=[[0,0.5],[1,0.5]];portConstraint=eastwest;fontFamily=JetBrains Mono;fontSource=https%3A%2F%2Ffonts.googleapis.com%2Fcss%3Ffamily%3DJetBrains%2BMono;fontColor=#7F7F7F;" parent="01LKnUzwDYek3KCBofWs-13" vertex="1">
                    <mxGeometry y="112" width="320" height="26" as="geometry"/>
                </mxCell>
                <mxCell id="01LKnUzwDYek3KCBofWs-20" value="+ writeEvent(): void" style="text;strokeColor=none;fillColor=none;align=left;verticalAlign=top;spacingLeft=4;spacingRight=4;overflow=hidden;rotatable=0;points=[[0,0.5],[1,0.5]];portConstraint=eastwest;fontFamily=JetBrains Mono;fontSource=https%3A%2F%2Ffonts.googleapis.com%2Fcss%3Ffamily%3DJetBrains%2BMono;fontColor=#7F7F7F;" parent="01LKnUzwDYek3KCBofWs-13" vertex="1">
                    <mxGeometry y="138" width="320" height="26" as="geometry"/>
                </mxCell>
                <mxCell id="2" value="CGI" style="swimlane;fontStyle=1;align=center;verticalAlign=top;childLayout=stackLayout;horizontal=1;startSize=26;horizontalStack=0;resizeParent=1;resizeParentMax=0;resizeLast=0;collapsible=1;marginBottom=0;fontFamily=JetBrains Mono;fontSource=https%3A%2F%2Ffonts.googleapis.com%2Fcss%3Ffamily%3DJetBrains%2BMono;" vertex="1" parent="1">
                    <mxGeometry x="821" y="1620" width="320" height="164" as="geometry"/>
                </mxCell>
                <mxCell id="3" value="- res: Resource*" style="text;strokeColor=none;fillColor=none;align=left;verticalAlign=top;spacingLeft=4;spacingRight=4;overflow=hidden;rotatable=0;points=[[0,0.5],[1,0.5]];portConstraint=eastwest;fontFamily=JetBrains Mono;fontSource=https%3A%2F%2Ffonts.googleapis.com%2Fcss%3Ffamily%3DJetBrains%2BMono;" vertex="1" parent="2">
                    <mxGeometry y="26" width="320" height="26" as="geometry"/>
                </mxCell>
                <mxCell id="4" value="- fd: int" style="text;strokeColor=none;fillColor=none;align=left;verticalAlign=top;spacingLeft=4;spacingRight=4;overflow=hidden;rotatable=0;points=[[0,0.5],[1,0.5]];portConstraint=eastwest;fontFamily=JetBrains Mono;fontSource=https%3A%2F%2Ffonts.googleapis.com%2Fcss%3Ffamily%3DJetBrains%2BMono;fontColor=#7F7F7F;" vertex="1" parent="2">
                    <mxGeometry y="52" width="320" height="26" as="geometry"/>
                </mxCell>
                <mxCell id="5" value="" style="line;strokeWidth=1;fillColor=none;align=left;verticalAlign=middle;spacingTop=-1;spacingLeft=3;spacingRight=3;rotatable=0;labelPosition=right;points=[];portConstraint=eastwest;fontFamily=JetBrains Mono;fontSource=https%3A%2F%2Ffonts.googleapis.com%2Fcss%3Ffamily%3DJetBrains%2BMono;" vertex="1" parent="2">
                    <mxGeometry y="78" width="320" height="8" as="geometry"/>
                </mxCell>
                <mxCell id="6" value="+ CGI(): void" style="text;strokeColor=none;fillColor=none;align=left;verticalAlign=top;spacingLeft=4;spacingRight=4;overflow=hidden;rotatable=0;points=[[0,0.5],[1,0.5]];portConstraint=eastwest;fontFamily=JetBrains Mono;fontSource=https%3A%2F%2Ffonts.googleapis.com%2Fcss%3Ffamily%3DJetBrains%2BMono;" vertex="1" parent="2">
                    <mxGeometry y="86" width="320" height="26" as="geometry"/>
                </mxCell>
                <mxCell id="7" value="+ readEvent(): void" style="text;strokeColor=none;fillColor=none;align=left;verticalAlign=top;spacingLeft=4;spacingRight=4;overflow=hidden;rotatable=0;points=[[0,0.5],[1,0.5]];portConstraint=eastwest;fontFamily=JetBrains Mono;fontSource=https%3A%2F%2Ffonts.googleapis.com%2Fcss%3Ffamily%3DJetBrains%2BMono;fontColor=#7F7F7F;" vertex="1" parent="2">
                    <mxGeometry y="112" width="320" height="26" as="geometry"/>
                </mxCell>
                <mxCell id="8" value="+ writeEvent(): void" style="text;strokeColor=none;fillColor=none;align=left;verticalAlign=top;spacingLeft=4;spacingRight=4;overflow=hidden;rotatable=0;points=[[0,0.5],[1,0.5]];portConstraint=eastwest;fontFamily=JetBrains Mono;fontSource=https%3A%2F%2Ffonts.googleapis.com%2Fcss%3Ffamily%3DJetBrains%2BMono;fontColor=#7F7F7F;" vertex="1" parent="2">
                    <mxGeometry y="138" width="320" height="26" as="geometry"/>
                </mxCell>
            </root>
        </mxGraphModel>
    </diagram>
</mxfile>
